<svg xmlns="http://www.w3.org/2000/svg" width="200" height="60" viewBox="0 0 200 60"><rect width="100%" height="100%" fill="#DDDDDD"/><path fill="#999999" d="M49.465 37.395h5.57q.6 0 .95.34t.35.89v2.22h-14.88v-1.23q0-.37.16-.79.16-.41.5-.74l6.59-6.6q.82-.84 1.47-1.6.66-.77 1.09-1.52.44-.75.67-1.52t.23-1.63q0-.78-.22-1.37-.23-.59-.64-1-.41-.4-.99-.61-.58-.2-1.3-.2-.66 0-1.22.19t-1 .52q-.43.34-.73.79t-.45.99q-.26.69-.66.92-.41.22-1.17.1l-1.95-.34q.22-1.56.87-2.74.64-1.18 1.61-1.97.97-.78 2.22-1.18t2.69-.4q1.5 0 2.75.44 1.24.45 2.13 1.26.88.8 1.38 1.94.49 1.15.49 2.54 0 1.2-.35 2.22t-.95 1.95q-.59.93-1.38 1.8-.8.87-1.67 1.77l-4.89 5q.71-.22 1.4-.33.7-.11 1.33-.11m24.9-7.39q0 2.83-.61 4.92-.6 2.1-1.68 3.46-1.07 1.37-2.53 2.03-1.46.67-3.16.67-1.69 0-3.14-.67-1.45-.66-2.51-2.03-1.07-1.36-1.67-3.46-.6-2.09-.6-4.92 0-2.86.6-4.94t1.67-3.45q1.06-1.36 2.51-2.03t3.14-.67q1.7 0 3.16.67t2.53 2.03q1.08 1.37 1.68 3.45.61 2.08.61 4.94m-3.82 0q0-2.36-.35-3.9-.34-1.55-.92-2.46-.58-.92-1.33-1.29t-1.56-.37q-.79 0-1.54.37-.74.37-1.31 1.29-.57.91-.91 2.46-.33 1.54-.33 3.9 0 2.35.33 3.9.34 1.54.91 2.46.57.91 1.31 1.28.75.37 1.54.37.81 0 1.56-.37t1.33-1.28q.58-.92.92-2.46.35-1.55.35-3.9m21.22 0q0 2.83-.61 4.92-.6 2.1-1.68 3.46-1.07 1.37-2.53 2.03-1.46.67-3.16.67-1.69 0-3.14-.67-1.45-.66-2.51-2.03-1.07-1.36-1.67-3.46-.6-2.09-.6-4.92 0-2.86.6-4.94t1.67-3.45q1.06-1.36 2.51-2.03t3.14-.67q1.7 0 3.16.67t2.53 2.03q1.08 1.37 1.68 3.45.61 2.08.61 4.94m-3.82 0q0-2.36-.35-3.9-.34-1.55-.92-2.46-.58-.92-1.33-1.29t-1.56-.37q-.79 0-1.54.37-.74.37-1.31 1.29-.57.91-.91 2.46-.33 1.54-.33 3.9 0 2.35.33 3.9.34 1.54.91 2.46.57.91 1.31 1.28.75.37 1.54.37.81 0 1.56-.37t1.33-1.28q.58-.92.92-2.46.35-1.55.35-3.9m27.64 5.88-1.96 1.93-5.09-5.09-5.13 5.12-1.96-1.93 5.13-5.15-4.89-4.89 1.95-1.95 4.88 4.89 4.86-4.86 1.98 1.95-4.87 4.88zm23.17-16.73-6.43 7.88-.75.93q.63-.32 1.36-.49.72-.17 1.56-.17 1.23 0 2.4.4 1.16.41 2.04 1.22.89.82 1.43 2.04.54 1.21.54 2.83 0 1.51-.56 2.84-.55 1.33-1.56 2.32-1 .99-2.42 1.56t-3.13.57q-1.74 0-3.12-.56-1.38-.55-2.35-1.55-.98-.99-1.49-2.4-.52-1.4-.52-3.11 0-1.53.62-3.14t1.93-3.36l5.17-6.94q.27-.36.79-.61.52-.26 1.2-.26zm-5.59 18.9q.88 0 1.63-.3.74-.3 1.27-.84.54-.54.83-1.27.3-.72.3-1.58 0-.93-.28-1.67-.29-.75-.81-1.26-.53-.52-1.26-.79-.74-.27-1.62-.27-.89 0-1.61.3t-1.23.83-.79 1.26q-.29.73-.29 1.57 0 .9.25 1.64.25.75.74 1.27.48.52 1.2.82.72.29 1.67.29m25.38-8.05q0 2.83-.61 4.92-.61 2.1-1.68 3.46-1.07 1.37-2.53 2.03-1.47.67-3.16.67-1.7 0-3.14-.67-1.45-.66-2.52-2.03-1.06-1.36-1.66-3.46-.6-2.09-.6-4.92 0-2.86.6-4.94t1.66-3.45q1.07-1.36 2.52-2.03 1.44-.67 3.14-.67 1.69 0 3.16.67 1.46.67 2.53 2.03 1.07 1.37 1.68 3.45t.61 4.94m-3.83 0q0-2.36-.34-3.9-.35-1.55-.92-2.46-.58-.92-1.33-1.29t-1.56-.37q-.8 0-1.54.37t-1.31 1.29q-.57.91-.91 2.46-.34 1.54-.34 3.9 0 2.35.34 3.9.34 1.54.91 2.46.57.91 1.31 1.28t1.54.37q.81 0 1.56-.37t1.33-1.28q.57-.92.92-2.46.34-1.55.34-3.9"/></svg>