<svg xmlns="http://www.w3.org/2000/svg" width="50" height="30" viewBox="0 0 50 30"><rect width="100%" height="100%" fill="#DDDDDD"/><path fill="#999999" d="m11.74 12.755-.23 1.36q.22-.05.41-.07.2-.02.39-.02.51 0 .9.15.39.16.66.43.26.27.4.63.13.36.13.78 0 .52-.18.94-.18.43-.51.74-.32.3-.76.47-.45.16-.97.16-.3 0-.58-.06-.27-.06-.51-.17t-.45-.24q-.2-.14-.37-.29l.35-.48q.1-.15.28-.15.11 0 .23.07.12.08.27.16.15.09.35.16.21.07.5.07.3 0 .54-.1.23-.1.38-.28.16-.17.24-.42.08-.24.08-.53 0-.53-.31-.83t-.91-.3q-.47 0-.95.17l-.69-.2.54-3.16h3.21v.48q0 .23-.15.38t-.5.15zm8.16 2.25q0 .85-.18 1.47-.19.63-.51 1.04t-.76.61-.95.2q-.5 0-.94-.2-.43-.2-.75-.61t-.5-1.04q-.18-.62-.18-1.47 0-.86.18-1.48.18-.63.5-1.04t.75-.61q.44-.2.94-.2.51 0 .95.2t.76.61.51 1.04q.18.62.18 1.48m-1.15 0q0-.71-.1-1.17-.11-.47-.28-.74-.17-.28-.4-.39-.22-.11-.47-.11-.23 0-.46.11-.22.11-.39.39-.17.27-.27.74-.1.46-.1 1.17 0 .7.1 1.17.1.46.27.73.17.28.39.39.23.11.46.11.25 0 .47-.11.23-.11.4-.39.17-.27.28-.73.1-.47.1-1.17m8.29 1.76-.59.58-1.52-1.52-1.54 1.53-.59-.58 1.54-1.54-1.47-1.47.59-.59 1.46 1.47 1.46-1.46.6.59-1.47 1.46zm3.75-3.1-.59-.1q.07-.47.26-.82.2-.36.49-.59.29-.24.66-.36.38-.12.81-.12.45 0 .81.13.37.13.62.35.26.23.4.54.13.3.13.66 0 .31-.07.55-.07.23-.2.41-.13.17-.32.29-.19.13-.44.21.59.18.88.56.28.38.28.95 0 .49-.18.86t-.48.63q-.31.25-.71.38t-.85.13q-.49 0-.86-.11-.36-.11-.63-.33t-.46-.54-.33-.74l.49-.2q.2-.09.37-.05t.24.19q.08.15.18.31.1.15.23.27.14.12.32.19.18.08.43.08.29 0 .5-.1.21-.09.35-.24t.21-.33.07-.36q0-.24-.05-.43t-.2-.33q-.16-.13-.46-.21-.29-.07-.79-.07v-.8q.41 0 .68-.07t.43-.2.23-.31q.06-.18.06-.4 0-.46-.26-.69-.25-.24-.68-.24-.2 0-.37.05-.16.06-.3.16-.13.1-.22.24-.09.13-.13.29-.08.21-.2.28-.13.07-.35.03m9.14 1.34q0 .85-.18 1.47-.18.63-.5 1.04-.33.41-.76.61-.44.2-.95.2t-.94-.2q-.44-.2-.76-.61t-.5-1.04q-.18-.62-.18-1.47 0-.86.18-1.48.18-.63.5-1.04t.76-.61q.43-.2.94-.2t.95.2q.43.2.76.61.32.41.5 1.04.18.62.18 1.48m-1.15 0q0-.71-.1-1.17-.1-.47-.28-.74-.17-.28-.39-.39-.23-.11-.47-.11t-.46.11q-.23.11-.4.39-.17.27-.27.74-.1.46-.1 1.17 0 .7.1 1.17.1.46.27.73.17.28.4.39.22.11.46.11t.47-.11q.22-.11.39-.39.18-.27.28-.73.1-.47.1-1.17"/></svg>