<svg xmlns="http://www.w3.org/2000/svg" xmlns:xlink="http://www.w3.org/1999/xlink" width="500" zoomAndPan="magnify" viewBox="0 0 375 374.999991" height="500" preserveAspectRatio="xMidYMid meet" version="1.0"><defs><clipPath id="334d9b8e42"><path d="M 303 61 L 366.421875 61 L 366.421875 183 L 303 183 Z M 303 61 " clip-rule="nonzero"/></clipPath><clipPath id="a63d3ff17a"><path d="M 8.671875 61 L 72 61 L 72 183 L 8.671875 183 Z M 8.671875 61 " clip-rule="nonzero"/></clipPath><clipPath id="c9794bf03d"><path d="M 303 201 L 366.421875 201 L 366.421875 322 L 303 322 Z M 303 201 " clip-rule="nonzero"/></clipPath><clipPath id="bcb503dc4c"><path d="M 8.671875 201 L 72 201 L 72 322 L 8.671875 322 Z M 8.671875 201 " clip-rule="nonzero"/></clipPath><clipPath id="9ec72c4272"><path d="M 303 61 L 366.421875 61 L 366.421875 183 L 303 183 Z M 303 61 " clip-rule="nonzero"/></clipPath><clipPath id="13bc99152f"><path d="M 8.671875 61 L 72 61 L 72 183 L 8.671875 183 Z M 8.671875 61 " clip-rule="nonzero"/></clipPath><clipPath id="a0db80b672"><path d="M 303 201 L 366.421875 201 L 366.421875 322 L 303 322 Z M 303 201 " clip-rule="nonzero"/></clipPath><clipPath id="d4ac3993b7"><path d="M 8.671875 201 L 72 201 L 72 322 L 8.671875 322 Z M 8.671875 201 " clip-rule="nonzero"/></clipPath></defs><g clip-path="url(#334d9b8e42)"><path fill="#6caeee" d="M 326.949219 61.746094 L 342.820312 61.746094 C 343.582031 61.746094 344.34375 61.78125 345.101562 61.855469 C 345.859375 61.929688 346.613281 62.042969 347.363281 62.191406 C 348.109375 62.339844 348.847656 62.527344 349.578125 62.746094 C 350.308594 62.96875 351.027344 63.226562 351.730469 63.515625 C 352.433594 63.808594 353.125 64.132812 353.796875 64.492188 C 354.46875 64.851562 355.121094 65.246094 355.757812 65.667969 C 356.390625 66.09375 357.003906 66.546875 357.589844 67.03125 C 358.179688 67.511719 358.746094 68.023438 359.285156 68.5625 C 359.824219 69.101562 360.335938 69.667969 360.820312 70.257812 C 361.304688 70.847656 361.757812 71.457031 362.179688 72.09375 C 362.605469 72.726562 362.996094 73.378906 363.355469 74.050781 C 363.714844 74.726562 364.039062 75.414062 364.332031 76.117188 C 364.625 76.824219 364.878906 77.539062 365.101562 78.269531 C 365.324219 79 365.507812 79.738281 365.65625 80.488281 C 365.804688 81.234375 365.917969 81.988281 365.992188 82.746094 C 366.066406 83.503906 366.105469 84.265625 366.105469 85.027344 L 366.105469 159.070312 C 366.105469 159.832031 366.066406 160.59375 365.992188 161.351562 C 365.917969 162.109375 365.804688 162.863281 365.65625 163.613281 C 365.507812 164.359375 365.324219 165.097656 365.101562 165.828125 C 364.878906 166.558594 364.625 167.277344 364.332031 167.980469 C 364.039062 168.683594 363.714844 169.375 363.355469 170.046875 C 362.996094 170.71875 362.605469 171.371094 362.179688 172.007812 C 361.757812 172.640625 361.304688 173.253906 360.820312 173.839844 C 360.335938 174.429688 359.824219 174.996094 359.285156 175.535156 C 358.746094 176.074219 358.179688 176.585938 357.589844 177.070312 C 357.003906 177.554688 356.390625 178.007812 355.757812 178.429688 C 355.121094 178.855469 354.46875 179.246094 353.796875 179.605469 C 353.125 179.964844 352.433594 180.289062 351.730469 180.582031 C 351.027344 180.875 350.308594 181.128906 349.578125 181.351562 C 348.847656 181.574219 348.109375 181.757812 347.363281 181.90625 C 346.613281 182.054688 345.859375 182.167969 345.101562 182.242188 C 344.34375 182.316406 343.582031 182.355469 342.820312 182.355469 L 326.949219 182.355469 C 326.183594 182.355469 325.425781 182.316406 324.664062 182.242188 C 323.90625 182.167969 323.152344 182.054688 322.40625 181.90625 C 321.65625 181.757812 320.917969 181.574219 320.1875 181.351562 C 319.457031 181.128906 318.742188 180.875 318.035156 180.582031 C 317.332031 180.289062 316.644531 179.964844 315.972656 179.605469 C 315.296875 179.246094 314.644531 178.855469 314.011719 178.429688 C 313.378906 178.007812 312.765625 177.554688 312.175781 177.070312 C 311.585938 176.585938 311.023438 176.074219 310.484375 175.535156 C 309.945312 174.996094 309.433594 174.429688 308.949219 173.839844 C 308.464844 173.253906 308.011719 172.640625 307.585938 172.007812 C 307.164062 171.371094 306.773438 170.71875 306.414062 170.046875 C 306.050781 169.375 305.726562 168.683594 305.433594 167.980469 C 305.144531 167.277344 304.886719 166.558594 304.664062 165.828125 C 304.445312 165.097656 304.257812 164.359375 304.109375 163.613281 C 303.960938 162.863281 303.851562 162.109375 303.773438 161.351562 C 303.699219 160.59375 303.664062 159.832031 303.664062 159.070312 L 303.664062 85.027344 C 303.664062 84.265625 303.699219 83.503906 303.773438 82.746094 C 303.851562 81.988281 303.960938 81.234375 304.109375 80.488281 C 304.257812 79.738281 304.445312 79 304.664062 78.269531 C 304.886719 77.539062 305.144531 76.824219 305.433594 76.117188 C 305.726562 75.414062 306.050781 74.726562 306.414062 74.050781 C 306.773438 73.378906 307.164062 72.726562 307.585938 72.09375 C 308.011719 71.457031 308.464844 70.847656 308.949219 70.257812 C 309.433594 69.667969 309.945312 69.101562 310.484375 68.5625 C 311.023438 68.023438 311.585938 67.511719 312.175781 67.03125 C 312.765625 66.546875 313.378906 66.09375 314.011719 65.667969 C 314.644531 65.246094 315.296875 64.851562 315.972656 64.492188 C 316.644531 64.132812 317.332031 63.808594 318.035156 63.515625 C 318.742188 63.226562 319.457031 62.96875 320.1875 62.746094 C 320.917969 62.527344 321.65625 62.339844 322.40625 62.191406 C 323.152344 62.042969 323.90625 61.929688 324.664062 61.855469 C 325.425781 61.78125 326.183594 61.746094 326.949219 61.746094 Z M 326.949219 61.746094 " fill-opacity="1" fill-rule="nonzero"/></g><g clip-path="url(#a63d3ff17a)"><path fill="#6caeee" d="M 32.09375 61.746094 L 47.964844 61.746094 C 48.726562 61.746094 49.488281 61.78125 50.246094 61.855469 C 51.007812 61.929688 51.761719 62.042969 52.507812 62.191406 C 53.253906 62.339844 53.996094 62.527344 54.722656 62.746094 C 55.453125 62.96875 56.171875 63.226562 56.875 63.515625 C 57.582031 63.808594 58.269531 64.132812 58.941406 64.492188 C 59.613281 64.851562 60.265625 65.246094 60.902344 65.667969 C 61.535156 66.09375 62.148438 66.546875 62.738281 67.03125 C 63.328125 67.511719 63.890625 68.023438 64.429688 68.5625 C 64.96875 69.101562 65.480469 69.667969 65.964844 70.257812 C 66.449219 70.847656 66.902344 71.457031 67.324219 72.09375 C 67.75 72.726562 68.140625 73.378906 68.5 74.050781 C 68.859375 74.726562 69.1875 75.414062 69.476562 76.117188 C 69.769531 76.824219 70.027344 77.539062 70.246094 78.269531 C 70.46875 79 70.652344 79.738281 70.800781 80.488281 C 70.953125 81.234375 71.0625 81.988281 71.136719 82.746094 C 71.210938 83.503906 71.25 84.265625 71.25 85.027344 L 71.25 159.070312 C 71.25 159.832031 71.210938 160.59375 71.136719 161.351562 C 71.0625 162.109375 70.953125 162.863281 70.800781 163.613281 C 70.652344 164.359375 70.46875 165.097656 70.246094 165.828125 C 70.027344 166.558594 69.769531 167.277344 69.476562 167.980469 C 69.1875 168.683594 68.859375 169.375 68.5 170.046875 C 68.140625 170.71875 67.75 171.371094 67.324219 172.007812 C 66.902344 172.640625 66.449219 173.253906 65.964844 173.839844 C 65.480469 174.429688 64.96875 174.996094 64.429688 175.535156 C 63.890625 176.074219 63.328125 176.585938 62.738281 177.070312 C 62.148438 177.554688 61.535156 178.007812 60.902344 178.429688 C 60.265625 178.855469 59.613281 179.246094 58.941406 179.605469 C 58.269531 179.964844 57.582031 180.289062 56.875 180.582031 C 56.171875 180.875 55.453125 181.128906 54.722656 181.351562 C 53.996094 181.574219 53.253906 181.757812 52.507812 181.90625 C 51.761719 182.054688 51.007812 182.167969 50.246094 182.242188 C 49.488281 182.316406 48.726562 182.355469 47.964844 182.355469 L 32.09375 182.355469 C 31.332031 182.355469 30.570312 182.316406 29.8125 182.242188 C 29.050781 182.167969 28.296875 182.054688 27.550781 181.90625 C 26.800781 181.757812 26.0625 181.574219 25.332031 181.351562 C 24.605469 181.128906 23.886719 180.875 23.183594 180.582031 C 22.476562 180.289062 21.789062 179.964844 21.117188 179.605469 C 20.445312 179.246094 19.789062 178.855469 19.15625 178.429688 C 18.523438 178.007812 17.910156 177.554688 17.320312 177.070312 C 16.730469 176.585938 16.167969 176.074219 15.628906 175.535156 C 15.089844 174.996094 14.578125 174.429688 14.09375 173.839844 C 13.609375 173.253906 13.15625 172.640625 12.730469 172.007812 C 12.308594 171.371094 11.917969 170.71875 11.558594 170.046875 C 11.199219 169.375 10.871094 168.683594 10.582031 167.980469 C 10.289062 167.277344 10.03125 166.558594 9.8125 165.828125 C 9.589844 165.097656 9.40625 164.359375 9.253906 163.613281 C 9.105469 162.863281 8.996094 162.109375 8.921875 161.351562 C 8.84375 160.59375 8.808594 159.832031 8.808594 159.070312 L 8.808594 85.027344 C 8.808594 84.265625 8.84375 83.503906 8.921875 82.746094 C 8.996094 81.988281 9.105469 81.234375 9.253906 80.488281 C 9.40625 79.738281 9.589844 79 9.8125 78.269531 C 10.03125 77.539062 10.289062 76.824219 10.582031 76.117188 C 10.871094 75.414062 11.199219 74.726562 11.558594 74.050781 C 11.917969 73.378906 12.308594 72.726562 12.730469 72.09375 C 13.15625 71.457031 13.609375 70.847656 14.09375 70.257812 C 14.578125 69.667969 15.089844 69.101562 15.628906 68.5625 C 16.167969 68.023438 16.730469 67.511719 17.320312 67.03125 C 17.910156 66.546875 18.523438 66.09375 19.15625 65.667969 C 19.789062 65.246094 20.445312 64.851562 21.117188 64.492188 C 21.789062 64.132812 22.476562 63.808594 23.183594 63.515625 C 23.886719 63.226562 24.605469 62.96875 25.332031 62.746094 C 26.0625 62.527344 26.800781 62.339844 27.550781 62.191406 C 28.296875 62.042969 29.050781 61.929688 29.8125 61.855469 C 30.570312 61.78125 31.332031 61.746094 32.09375 61.746094 Z M 32.09375 61.746094 " fill-opacity="1" fill-rule="nonzero"/></g><g clip-path="url(#c9794bf03d)"><path fill="#6caeee" d="M 326.949219 201.277344 L 342.820312 201.277344 C 343.582031 201.277344 344.34375 201.316406 345.101562 201.390625 C 345.859375 201.464844 346.613281 201.578125 347.363281 201.726562 C 348.109375 201.875 348.847656 202.058594 349.578125 202.28125 C 350.308594 202.503906 351.027344 202.757812 351.730469 203.050781 C 352.433594 203.34375 353.125 203.667969 353.796875 204.027344 C 354.46875 204.386719 355.121094 204.78125 355.757812 205.203125 C 356.390625 205.625 357.003906 206.082031 357.589844 206.566406 C 358.179688 207.046875 358.746094 207.558594 359.285156 208.097656 C 359.824219 208.636719 360.335938 209.203125 360.820312 209.792969 C 361.304688 210.382812 361.757812 210.992188 362.179688 211.628906 C 362.605469 212.261719 362.996094 212.914062 363.355469 213.585938 C 363.714844 214.261719 364.039062 214.949219 364.332031 215.652344 C 364.625 216.359375 364.878906 217.074219 365.101562 217.804688 C 365.324219 218.535156 365.507812 219.273438 365.65625 220.019531 C 365.804688 220.769531 365.917969 221.523438 365.992188 222.28125 C 366.066406 223.039062 366.105469 223.800781 366.105469 224.5625 L 366.105469 298.605469 C 366.105469 299.367188 366.066406 300.128906 365.992188 300.886719 C 365.917969 301.644531 365.804688 302.398438 365.65625 303.148438 C 365.507812 303.894531 365.324219 304.632812 365.101562 305.363281 C 364.878906 306.09375 364.625 306.8125 364.332031 307.515625 C 364.039062 308.21875 363.714844 308.910156 363.355469 309.582031 C 362.996094 310.253906 362.605469 310.90625 362.179688 311.539062 C 361.757812 312.175781 361.304688 312.785156 360.820312 313.375 C 360.335938 313.964844 359.824219 314.53125 359.285156 315.070312 C 358.746094 315.609375 358.179688 316.121094 357.589844 316.605469 C 357.003906 317.085938 356.390625 317.542969 355.757812 317.964844 C 355.121094 318.390625 354.46875 318.78125 353.796875 319.140625 C 353.125 319.5 352.433594 319.824219 351.730469 320.117188 C 351.027344 320.410156 350.308594 320.664062 349.578125 320.886719 C 348.847656 321.109375 348.109375 321.292969 347.363281 321.441406 C 346.613281 321.589844 345.859375 321.703125 345.101562 321.777344 C 344.34375 321.851562 343.582031 321.890625 342.820312 321.890625 L 326.949219 321.890625 C 326.183594 321.890625 325.425781 321.851562 324.664062 321.777344 C 323.90625 321.703125 323.152344 321.589844 322.40625 321.441406 C 321.65625 321.292969 320.917969 321.109375 320.1875 320.886719 C 319.457031 320.664062 318.742188 320.410156 318.035156 320.117188 C 317.332031 319.824219 316.644531 319.5 315.972656 319.140625 C 315.296875 318.78125 314.644531 318.390625 314.011719 317.964844 C 313.378906 317.542969 312.765625 317.085938 312.175781 316.605469 C 311.585938 316.121094 311.023438 315.609375 310.484375 315.070312 C 309.945312 314.53125 309.433594 313.964844 308.949219 313.375 C 308.464844 312.785156 308.011719 312.175781 307.585938 311.539062 C 307.164062 310.90625 306.773438 310.253906 306.414062 309.582031 C 306.050781 308.910156 305.726562 308.21875 305.433594 307.515625 C 305.144531 306.8125 304.886719 306.09375 304.664062 305.363281 C 304.445312 304.632812 304.257812 303.894531 304.109375 303.148438 C 303.960938 302.398438 303.851562 301.644531 303.773438 300.886719 C 303.699219 300.128906 303.664062 299.367188 303.664062 298.605469 L 303.664062 224.5625 C 303.664062 223.800781 303.699219 223.039062 303.773438 222.28125 C 303.851562 221.523438 303.960938 220.769531 304.109375 220.019531 C 304.257812 219.273438 304.445312 218.535156 304.664062 217.804688 C 304.886719 217.074219 305.144531 216.359375 305.433594 215.652344 C 305.726562 214.949219 306.050781 214.261719 306.414062 213.585938 C 306.773438 212.914062 307.164062 212.261719 307.585938 211.628906 C 308.011719 210.992188 308.464844 210.382812 308.949219 209.792969 C 309.433594 209.203125 309.945312 208.636719 310.484375 208.097656 C 311.023438 207.558594 311.585938 207.046875 312.175781 206.566406 C 312.765625 206.082031 313.378906 205.625 314.011719 205.203125 C 314.644531 204.78125 315.296875 204.386719 315.972656 204.027344 C 316.644531 203.667969 317.332031 203.34375 318.035156 203.050781 C 318.742188 202.757812 319.457031 202.503906 320.1875 202.28125 C 320.917969 202.058594 321.65625 201.875 322.40625 201.726562 C 323.152344 201.578125 323.90625 201.464844 324.664062 201.390625 C 325.425781 201.316406 326.183594 201.277344 326.949219 201.277344 Z M 326.949219 201.277344 " fill-opacity="1" fill-rule="nonzero"/></g><g clip-path="url(#bcb503dc4c)"><path fill="#6caeee" d="M 32.09375 201.277344 L 47.964844 201.277344 C 48.726562 201.277344 49.488281 201.316406 50.246094 201.390625 C 51.007812 201.464844 51.761719 201.578125 52.507812 201.726562 C 53.253906 201.875 53.996094 202.058594 54.722656 202.28125 C 55.453125 202.503906 56.171875 202.757812 56.875 203.050781 C 57.582031 203.34375 58.269531 203.667969 58.941406 204.027344 C 59.613281 204.386719 60.265625 204.78125 60.902344 205.203125 C 61.535156 205.625 62.148438 206.082031 62.738281 206.566406 C 63.328125 207.046875 63.890625 207.558594 64.429688 208.097656 C 64.96875 208.636719 65.480469 209.203125 65.964844 209.792969 C 66.449219 210.382812 66.902344 210.992188 67.324219 211.628906 C 67.75 212.261719 68.140625 212.914062 68.5 213.585938 C 68.859375 214.261719 69.1875 214.949219 69.476562 215.652344 C 69.769531 216.359375 70.027344 217.074219 70.246094 217.804688 C 70.46875 218.535156 70.652344 219.273438 70.800781 220.019531 C 70.953125 220.769531 71.0625 221.523438 71.136719 222.28125 C 71.210938 223.039062 71.25 223.800781 71.25 224.5625 L 71.25 298.605469 C 71.25 299.367188 71.210938 300.128906 71.136719 300.886719 C 71.0625 301.644531 70.953125 302.398438 70.800781 303.148438 C 70.652344 303.894531 70.46875 304.632812 70.246094 305.363281 C 70.027344 306.09375 69.769531 306.8125 69.476562 307.515625 C 69.1875 308.21875 68.859375 308.910156 68.5 309.582031 C 68.140625 310.253906 67.75 310.90625 67.324219 311.539062 C 66.902344 312.175781 66.449219 312.785156 65.964844 313.375 C 65.480469 313.964844 64.96875 314.53125 64.429688 315.070312 C 63.890625 315.609375 63.328125 316.121094 62.738281 316.605469 C 62.148438 317.085938 61.535156 317.542969 60.902344 317.964844 C 60.265625 318.390625 59.613281 318.78125 58.941406 319.140625 C 58.269531 319.5 57.582031 319.824219 56.875 320.117188 C 56.171875 320.410156 55.453125 320.664062 54.722656 320.886719 C 53.996094 321.109375 53.253906 321.292969 52.507812 321.441406 C 51.761719 321.589844 51.007812 321.703125 50.246094 321.777344 C 49.488281 321.851562 48.726562 321.890625 47.964844 321.890625 L 32.09375 321.890625 C 31.332031 321.890625 30.570312 321.851562 29.8125 321.777344 C 29.050781 321.703125 28.296875 321.589844 27.550781 321.441406 C 26.800781 321.292969 26.0625 321.109375 25.332031 320.886719 C 24.605469 320.664062 23.886719 320.410156 23.183594 320.117188 C 22.476562 319.824219 21.789062 319.5 21.117188 319.140625 C 20.445312 318.78125 19.789062 318.390625 19.15625 317.964844 C 18.523438 317.542969 17.910156 317.085938 17.320312 316.605469 C 16.730469 316.121094 16.167969 315.609375 15.628906 315.070312 C 15.089844 314.53125 14.578125 313.964844 14.09375 313.375 C 13.609375 312.785156 13.15625 312.175781 12.730469 311.539062 C 12.308594 310.90625 11.917969 310.253906 11.558594 309.582031 C 11.199219 308.910156 10.871094 308.21875 10.582031 307.515625 C 10.289062 306.8125 10.03125 306.09375 9.8125 305.363281 C 9.589844 304.632812 9.40625 303.894531 9.253906 303.148438 C 9.105469 302.398438 8.996094 301.644531 8.921875 300.886719 C 8.84375 300.128906 8.808594 299.367188 8.808594 298.605469 L 8.808594 224.5625 C 8.808594 223.800781 8.84375 223.039062 8.921875 222.28125 C 8.996094 221.523438 9.105469 220.769531 9.253906 220.019531 C 9.40625 219.273438 9.589844 218.535156 9.8125 217.804688 C 10.03125 217.074219 10.289062 216.359375 10.582031 215.652344 C 10.871094 214.949219 11.199219 214.261719 11.558594 213.585938 C 11.917969 212.914062 12.308594 212.261719 12.730469 211.628906 C 13.15625 210.992188 13.609375 210.382812 14.09375 209.792969 C 14.578125 209.203125 15.089844 208.636719 15.628906 208.097656 C 16.167969 207.558594 16.730469 207.046875 17.320312 206.566406 C 17.910156 206.082031 18.523438 205.625 19.15625 205.203125 C 19.789062 204.78125 20.445312 204.386719 21.117188 204.027344 C 21.789062 203.667969 22.476562 203.34375 23.183594 203.050781 C 23.886719 202.757812 24.605469 202.503906 25.332031 202.28125 C 26.0625 202.058594 26.800781 201.875 27.550781 201.726562 C 28.296875 201.578125 29.050781 201.464844 29.8125 201.390625 C 30.570312 201.316406 31.332031 201.277344 32.09375 201.277344 Z M 32.09375 201.277344 " fill-opacity="1" fill-rule="nonzero"/></g><path fill="#1769c3" d="M 154.796875 0.175781 L 228.835938 0.175781 C 229.601562 0.175781 230.359375 0.210938 231.121094 0.285156 C 231.878906 0.359375 232.632812 0.472656 233.378906 0.621094 C 234.128906 0.769531 234.867188 0.957031 235.597656 1.175781 C 236.328125 1.398438 237.042969 1.65625 237.746094 1.945312 C 238.453125 2.238281 239.140625 2.5625 239.8125 2.925781 C 240.484375 3.285156 241.140625 3.675781 241.773438 4.097656 C 242.40625 4.523438 243.019531 4.976562 243.609375 5.460938 C 244.199219 5.945312 244.761719 6.457031 245.300781 6.996094 C 245.839844 7.535156 246.351562 8.097656 246.835938 8.6875 C 247.320312 9.277344 247.773438 9.890625 248.199219 10.523438 C 248.621094 11.15625 249.011719 11.808594 249.371094 12.484375 C 249.730469 13.15625 250.058594 13.84375 250.347656 14.546875 C 250.640625 15.253906 250.898438 15.96875 251.121094 16.699219 C 251.339844 17.429688 251.527344 18.167969 251.675781 18.917969 C 251.824219 19.664062 251.933594 20.417969 252.011719 21.175781 C 252.085938 21.9375 252.121094 22.695312 252.121094 23.460938 L 252.121094 39.332031 C 252.121094 40.09375 252.085938 40.855469 252.011719 41.613281 C 251.933594 42.371094 251.824219 43.125 251.675781 43.875 C 251.527344 44.621094 251.339844 45.359375 251.121094 46.089844 C 250.898438 46.820312 250.640625 47.539062 250.347656 48.242188 C 250.058594 48.945312 249.730469 49.636719 249.371094 50.308594 C 249.011719 50.980469 248.621094 51.632812 248.199219 52.269531 C 247.773438 52.902344 247.320312 53.511719 246.835938 54.101562 C 246.351562 54.691406 245.839844 55.257812 245.300781 55.796875 C 244.761719 56.335938 244.199219 56.847656 243.609375 57.332031 C 243.019531 57.816406 242.40625 58.269531 241.773438 58.691406 C 241.140625 59.117188 240.484375 59.507812 239.8125 59.867188 C 239.140625 60.226562 238.453125 60.550781 237.746094 60.84375 C 237.042969 61.136719 236.328125 61.390625 235.597656 61.613281 C 234.867188 61.835938 234.128906 62.019531 233.378906 62.167969 C 232.632812 62.316406 231.878906 62.429688 231.121094 62.503906 C 230.359375 62.578125 229.601562 62.617188 228.835938 62.617188 L 154.796875 62.617188 C 154.035156 62.617188 153.273438 62.578125 152.515625 62.503906 C 151.753906 62.429688 151 62.316406 150.253906 62.167969 C 149.507812 62.019531 148.765625 61.835938 148.039062 61.613281 C 147.308594 61.390625 146.589844 61.136719 145.886719 60.84375 C 145.179688 60.550781 144.492188 60.226562 143.820312 59.867188 C 143.148438 59.507812 142.496094 59.117188 141.859375 58.691406 C 141.226562 58.269531 140.613281 57.816406 140.023438 57.332031 C 139.433594 56.847656 138.871094 56.335938 138.332031 55.796875 C 137.792969 55.257812 137.28125 54.691406 136.796875 54.101562 C 136.3125 53.511719 135.859375 52.902344 135.4375 52.269531 C 135.011719 51.632812 134.621094 50.980469 134.261719 50.308594 C 133.902344 49.636719 133.574219 48.945312 133.285156 48.242188 C 132.992188 47.539062 132.734375 46.820312 132.515625 46.089844 C 132.292969 45.359375 132.109375 44.621094 131.960938 43.875 C 131.808594 43.125 131.699219 42.371094 131.625 41.613281 C 131.550781 40.855469 131.511719 40.09375 131.511719 39.332031 L 131.511719 23.460938 C 131.511719 22.695312 131.550781 21.9375 131.625 21.175781 C 131.699219 20.417969 131.808594 19.664062 131.960938 18.917969 C 132.109375 18.167969 132.292969 17.429688 132.515625 16.699219 C 132.734375 15.96875 132.992188 15.253906 133.285156 14.546875 C 133.574219 13.84375 133.902344 13.15625 134.261719 12.484375 C 134.621094 11.808594 135.011719 11.15625 135.4375 10.523438 C 135.859375 9.890625 136.3125 9.277344 136.796875 8.6875 C 137.28125 8.097656 137.792969 7.535156 138.332031 6.996094 C 138.871094 6.457031 139.433594 5.945312 140.023438 5.460938 C 140.613281 4.976562 141.226562 4.523438 141.859375 4.097656 C 142.496094 3.675781 143.148438 3.285156 143.820312 2.925781 C 144.492188 2.5625 145.179688 2.238281 145.886719 1.945312 C 146.589844 1.65625 147.308594 1.398438 148.039062 1.175781 C 148.765625 0.957031 149.507812 0.769531 150.253906 0.621094 C 151 0.472656 151.753906 0.359375 152.515625 0.285156 C 153.273438 0.210938 154.035156 0.175781 154.796875 0.175781 Z M 154.796875 0.175781 " fill-opacity="1" fill-rule="nonzero"/><path fill="#6caeee" d="M 215.84375 312.472656 L 289.882812 312.472656 C 290.644531 312.472656 291.40625 312.507812 292.167969 312.582031 C 292.925781 312.65625 293.679688 312.769531 294.425781 312.917969 C 295.175781 313.066406 295.914062 313.253906 296.644531 313.472656 C 297.371094 313.695312 298.089844 313.953125 298.792969 314.242188 C 299.5 314.535156 300.1875 314.859375 300.859375 315.21875 C 301.53125 315.578125 302.1875 315.972656 302.820312 316.394531 C 303.453125 316.820312 304.066406 317.273438 304.65625 317.757812 C 305.246094 318.238281 305.808594 318.75 306.347656 319.289062 C 306.886719 319.832031 307.398438 320.394531 307.882812 320.984375 C 308.367188 321.574219 308.820312 322.183594 309.246094 322.820312 C 309.667969 323.453125 310.058594 324.105469 310.417969 324.78125 C 310.777344 325.453125 311.105469 326.140625 311.394531 326.84375 C 311.6875 327.550781 311.945312 328.265625 312.164062 328.996094 C 312.386719 329.726562 312.574219 330.464844 312.722656 331.214844 C 312.871094 331.960938 312.980469 332.714844 313.054688 333.472656 C 313.132812 334.230469 313.167969 334.992188 313.167969 335.753906 L 313.167969 351.628906 C 313.167969 352.390625 313.132812 353.152344 313.054688 353.910156 C 312.980469 354.667969 312.871094 355.421875 312.722656 356.171875 C 312.574219 356.917969 312.386719 357.65625 312.164062 358.386719 C 311.945312 359.117188 311.6875 359.835938 311.394531 360.539062 C 311.105469 361.242188 310.777344 361.933594 310.417969 362.605469 C 310.058594 363.277344 309.667969 363.929688 309.246094 364.5625 C 308.820312 365.199219 308.367188 365.808594 307.882812 366.398438 C 307.398438 366.988281 306.886719 367.554688 306.347656 368.09375 C 305.808594 368.632812 305.246094 369.144531 304.65625 369.628906 C 304.066406 370.109375 303.453125 370.566406 302.820312 370.988281 C 302.1875 371.414062 301.53125 371.804688 300.859375 372.164062 C 300.1875 372.523438 299.5 372.847656 298.792969 373.140625 C 298.089844 373.433594 297.371094 373.6875 296.644531 373.910156 C 295.914062 374.132812 295.175781 374.316406 294.425781 374.464844 C 293.679688 374.613281 292.925781 374.726562 292.167969 374.800781 C 291.40625 374.875 290.644531 374.914062 289.882812 374.914062 L 215.84375 374.914062 C 215.082031 374.914062 214.320312 374.875 213.5625 374.800781 C 212.800781 374.726562 212.046875 374.613281 211.300781 374.464844 C 210.550781 374.316406 209.8125 374.132812 209.082031 373.910156 C 208.355469 373.6875 207.636719 373.433594 206.933594 373.140625 C 206.226562 372.847656 205.539062 372.523438 204.867188 372.164062 C 204.195312 371.804688 203.539062 371.414062 202.90625 370.988281 C 202.273438 370.566406 201.660156 370.109375 201.070312 369.628906 C 200.480469 369.144531 199.917969 368.632812 199.378906 368.09375 C 198.839844 367.554688 198.328125 366.988281 197.84375 366.398438 C 197.359375 365.808594 196.90625 365.199219 196.480469 364.5625 C 196.058594 363.929688 195.667969 363.277344 195.308594 362.605469 C 194.949219 361.933594 194.621094 361.242188 194.332031 360.539062 C 194.039062 359.835938 193.78125 359.117188 193.5625 358.386719 C 193.339844 357.65625 193.152344 356.917969 193.003906 356.171875 C 192.855469 355.421875 192.746094 354.667969 192.671875 353.910156 C 192.59375 353.152344 192.558594 352.390625 192.558594 351.628906 L 192.558594 335.753906 C 192.558594 334.992188 192.59375 334.230469 192.671875 333.472656 C 192.746094 332.714844 192.855469 331.960938 193.003906 331.214844 C 193.152344 330.464844 193.339844 329.726562 193.5625 328.996094 C 193.78125 328.265625 194.039062 327.550781 194.332031 326.84375 C 194.621094 326.140625 194.949219 325.453125 195.308594 324.78125 C 195.667969 324.105469 196.058594 323.453125 196.480469 322.820312 C 196.90625 322.183594 197.359375 321.574219 197.84375 320.984375 C 198.328125 320.394531 198.839844 319.832031 199.378906 319.289062 C 199.917969 318.75 200.480469 318.238281 201.070312 317.757812 C 201.660156 317.273438 202.273438 316.820312 202.90625 316.394531 C 203.539062 315.972656 204.195312 315.578125 204.867188 315.21875 C 205.539062 314.859375 206.226562 314.535156 206.933594 314.242188 C 207.636719 313.953125 208.355469 313.695312 209.082031 313.472656 C 209.8125 313.253906 210.550781 313.066406 211.300781 312.917969 C 212.046875 312.769531 212.800781 312.65625 213.5625 312.582031 C 214.320312 312.507812 215.082031 312.472656 215.84375 312.472656 Z M 215.84375 312.472656 " fill-opacity="1" fill-rule="nonzero"/><path fill="#6caeee" d="M 85.027344 312.472656 L 159.070312 312.472656 C 159.832031 312.472656 160.59375 312.507812 161.351562 312.582031 C 162.109375 312.65625 162.863281 312.769531 163.613281 312.917969 C 164.359375 313.066406 165.097656 313.253906 165.828125 313.472656 C 166.558594 313.695312 167.277344 313.953125 167.980469 314.242188 C 168.683594 314.535156 169.375 314.859375 170.046875 315.21875 C 170.71875 315.578125 171.371094 315.972656 172.007812 316.394531 C 172.640625 316.820312 173.253906 317.273438 173.839844 317.757812 C 174.429688 318.238281 174.996094 318.75 175.535156 319.289062 C 176.074219 319.832031 176.585938 320.394531 177.070312 320.984375 C 177.554688 321.574219 178.007812 322.183594 178.429688 322.820312 C 178.855469 323.453125 179.246094 324.105469 179.605469 324.78125 C 179.964844 325.453125 180.289062 326.140625 180.582031 326.84375 C 180.875 327.550781 181.128906 328.265625 181.351562 328.996094 C 181.574219 329.726562 181.757812 330.464844 181.90625 331.214844 C 182.054688 331.960938 182.167969 332.714844 182.242188 333.472656 C 182.316406 334.230469 182.355469 334.992188 182.355469 335.753906 L 182.355469 351.628906 C 182.355469 352.390625 182.316406 353.152344 182.242188 353.910156 C 182.167969 354.667969 182.054688 355.421875 181.90625 356.171875 C 181.757812 356.917969 181.574219 357.65625 181.351562 358.386719 C 181.128906 359.117188 180.875 359.835938 180.582031 360.539062 C 180.289062 361.242188 179.964844 361.933594 179.605469 362.605469 C 179.246094 363.277344 178.855469 363.929688 178.429688 364.5625 C 178.007812 365.199219 177.554688 365.808594 177.070312 366.398438 C 176.585938 366.988281 176.074219 367.554688 175.535156 368.09375 C 174.996094 368.632812 174.429688 369.144531 173.839844 369.628906 C 173.253906 370.109375 172.640625 370.566406 172.007812 370.988281 C 171.371094 371.414062 170.71875 371.804688 170.046875 372.164062 C 169.375 372.523438 168.683594 372.847656 167.980469 373.140625 C 167.277344 373.433594 166.558594 373.6875 165.828125 373.910156 C 165.097656 374.132812 164.359375 374.316406 163.613281 374.464844 C 162.863281 374.613281 162.109375 374.726562 161.351562 374.800781 C 160.59375 374.875 159.832031 374.914062 159.070312 374.914062 L 85.027344 374.914062 C 84.265625 374.914062 83.503906 374.875 82.746094 374.800781 C 81.988281 374.726562 81.234375 374.613281 80.488281 374.464844 C 79.738281 374.316406 79 374.132812 78.269531 373.910156 C 77.539062 373.6875 76.824219 373.433594 76.117188 373.140625 C 75.414062 372.847656 74.726562 372.523438 74.050781 372.164062 C 73.378906 371.804688 72.726562 371.414062 72.09375 370.988281 C 71.457031 370.566406 70.847656 370.109375 70.257812 369.628906 C 69.667969 369.144531 69.101562 368.632812 68.5625 368.09375 C 68.023438 367.554688 67.511719 366.988281 67.03125 366.398438 C 66.546875 365.808594 66.09375 365.199219 65.667969 364.5625 C 65.246094 363.929688 64.851562 363.277344 64.492188 362.605469 C 64.132812 361.933594 63.808594 361.242188 63.515625 360.539062 C 63.226562 359.835938 62.96875 359.117188 62.746094 358.386719 C 62.527344 357.65625 62.339844 356.917969 62.191406 356.171875 C 62.042969 355.421875 61.929688 354.667969 61.855469 353.910156 C 61.78125 353.152344 61.746094 352.390625 61.746094 351.628906 L 61.746094 335.753906 C 61.746094 334.992188 61.78125 334.230469 61.855469 333.472656 C 61.929688 332.714844 62.042969 331.960938 62.191406 331.214844 C 62.339844 330.464844 62.527344 329.726562 62.746094 328.996094 C 62.96875 328.265625 63.226562 327.550781 63.515625 326.84375 C 63.808594 326.140625 64.132812 325.453125 64.492188 324.78125 C 64.851562 324.105469 65.246094 323.453125 65.667969 322.820312 C 66.09375 322.183594 66.546875 321.574219 67.03125 320.984375 C 67.511719 320.394531 68.023438 319.832031 68.5625 319.289062 C 69.101562 318.75 69.667969 318.238281 70.257812 317.757812 C 70.847656 317.273438 71.457031 316.820312 72.09375 316.394531 C 72.726562 315.972656 73.378906 315.578125 74.050781 315.21875 C 74.726562 314.859375 75.414062 314.535156 76.117188 314.242188 C 76.824219 313.953125 77.539062 313.695312 78.269531 313.472656 C 79 313.253906 79.738281 313.066406 80.488281 312.917969 C 81.234375 312.769531 81.988281 312.65625 82.746094 312.582031 C 83.503906 312.507812 84.265625 312.472656 85.027344 312.472656 Z M 85.027344 312.472656 " fill-opacity="1" fill-rule="nonzero"/><path fill="#a2c9ee" d="M 92.964844 301.65625 L 283.429688 301.65625 C 284.003906 301.65625 284.570312 301.601562 285.132812 301.488281 C 285.691406 301.378906 286.238281 301.210938 286.765625 300.992188 C 287.296875 300.773438 287.800781 300.503906 288.273438 300.1875 C 288.75 299.867188 289.191406 299.507812 289.597656 299.101562 C 290 298.699219 290.363281 298.257812 290.679688 297.78125 C 291 297.304688 291.269531 296.800781 291.488281 296.273438 C 291.707031 295.746094 291.871094 295.199219 291.984375 294.636719 C 292.09375 294.074219 292.152344 293.507812 292.152344 292.9375 L 292.152344 83.632812 C 292.152344 83.0625 292.09375 82.492188 291.984375 81.933594 C 291.871094 81.371094 291.707031 80.824219 291.488281 80.296875 C 291.269531 79.765625 291 79.265625 290.679688 78.789062 C 290.363281 78.3125 290 77.871094 289.597656 77.46875 C 289.191406 77.0625 288.75 76.699219 288.273438 76.382812 C 287.800781 76.0625 287.296875 75.796875 286.765625 75.578125 C 286.238281 75.359375 285.691406 75.191406 285.132812 75.082031 C 284.570312 74.96875 284.003906 74.914062 283.429688 74.914062 L 221.511719 74.914062 C 220.9375 74.914062 220.371094 74.96875 219.808594 75.082031 C 219.25 75.191406 218.703125 75.359375 218.175781 75.578125 C 217.644531 75.796875 217.144531 76.0625 216.667969 76.382812 C 216.191406 76.699219 215.75 77.0625 215.34375 77.46875 C 214.941406 77.871094 214.578125 78.3125 214.261719 78.789062 C 213.941406 79.265625 213.671875 79.765625 213.453125 80.296875 C 213.234375 80.824219 213.070312 81.371094 212.957031 81.933594 C 212.847656 82.492188 212.789062 83.0625 212.789062 83.632812 L 212.789062 226.570312 L 160.464844 226.570312 L 160.464844 83.632812 C 160.464844 83.0625 160.410156 82.492188 160.296875 81.933594 C 160.1875 81.371094 160.019531 80.824219 159.800781 80.296875 C 159.582031 79.765625 159.3125 79.265625 158.996094 78.789062 C 158.675781 78.3125 158.316406 77.871094 157.910156 77.46875 C 157.507812 77.0625 157.066406 76.699219 156.589844 76.382812 C 156.113281 76.0625 155.609375 75.796875 155.082031 75.578125 C 154.550781 75.359375 154.007812 75.191406 153.445312 75.082031 C 152.882812 74.96875 152.316406 74.914062 151.746094 74.914062 L 92.964844 74.914062 C 92.390625 74.914062 91.824219 74.96875 91.265625 75.082031 C 90.703125 75.191406 90.15625 75.359375 89.628906 75.578125 C 89.097656 75.796875 88.597656 76.0625 88.121094 76.382812 C 87.644531 76.699219 87.203125 77.0625 86.796875 77.46875 C 86.394531 77.871094 86.03125 78.3125 85.714844 78.789062 C 85.394531 79.265625 85.128906 79.765625 84.90625 80.296875 C 84.6875 80.824219 84.523438 81.371094 84.410156 81.933594 C 84.300781 82.492188 84.246094 83.0625 84.246094 83.632812 L 84.246094 292.9375 C 84.246094 293.507812 84.300781 294.074219 84.410156 294.636719 C 84.523438 295.199219 84.6875 295.746094 84.90625 296.273438 C 85.128906 296.800781 85.394531 297.304688 85.714844 297.78125 C 86.03125 298.257812 86.394531 298.699219 86.796875 299.101562 C 87.203125 299.507812 87.644531 299.867188 88.121094 300.1875 C 88.597656 300.503906 89.097656 300.773438 89.628906 300.992188 C 90.15625 301.210938 90.703125 301.378906 91.265625 301.488281 C 91.824219 301.601562 92.390625 301.65625 92.964844 301.65625 Z M 92.964844 301.65625 " fill-opacity="1" fill-rule="nonzero"/><g clip-path="url(#9ec72c4272)"><path fill="#6caeee" d="M 326.949219 61.746094 L 342.820312 61.746094 C 343.582031 61.746094 344.34375 61.78125 345.101562 61.855469 C 345.859375 61.929688 346.613281 62.042969 347.363281 62.191406 C 348.109375 62.339844 348.847656 62.527344 349.578125 62.746094 C 350.308594 62.96875 351.027344 63.226562 351.730469 63.515625 C 352.433594 63.808594 353.125 64.132812 353.796875 64.492188 C 354.46875 64.851562 355.121094 65.246094 355.757812 65.667969 C 356.390625 66.09375 357.003906 66.546875 357.589844 67.03125 C 358.179688 67.511719 358.746094 68.023438 359.285156 68.5625 C 359.824219 69.101562 360.335938 69.667969 360.820312 70.257812 C 361.304688 70.847656 361.757812 71.457031 362.179688 72.09375 C 362.605469 72.726562 362.996094 73.378906 363.355469 74.050781 C 363.714844 74.726562 364.039062 75.414062 364.332031 76.117188 C 364.625 76.824219 364.878906 77.539062 365.101562 78.269531 C 365.324219 79 365.507812 79.738281 365.65625 80.488281 C 365.804688 81.234375 365.917969 81.988281 365.992188 82.746094 C 366.066406 83.503906 366.105469 84.265625 366.105469 85.027344 L 366.105469 159.070312 C 366.105469 159.832031 366.066406 160.59375 365.992188 161.351562 C 365.917969 162.109375 365.804688 162.863281 365.65625 163.613281 C 365.507812 164.359375 365.324219 165.097656 365.101562 165.828125 C 364.878906 166.558594 364.625 167.277344 364.332031 167.980469 C 364.039062 168.683594 363.714844 169.375 363.355469 170.046875 C 362.996094 170.71875 362.605469 171.371094 362.179688 172.007812 C 361.757812 172.640625 361.304688 173.253906 360.820312 173.839844 C 360.335938 174.429688 359.824219 174.996094 359.285156 175.535156 C 358.746094 176.074219 358.179688 176.585938 357.589844 177.070312 C 357.003906 177.554688 356.390625 178.007812 355.757812 178.429688 C 355.121094 178.855469 354.46875 179.246094 353.796875 179.605469 C 353.125 179.964844 352.433594 180.289062 351.730469 180.582031 C 351.027344 180.875 350.308594 181.128906 349.578125 181.351562 C 348.847656 181.574219 348.109375 181.757812 347.363281 181.90625 C 346.613281 182.054688 345.859375 182.167969 345.101562 182.242188 C 344.34375 182.316406 343.582031 182.355469 342.820312 182.355469 L 326.949219 182.355469 C 326.183594 182.355469 325.425781 182.316406 324.664062 182.242188 C 323.90625 182.167969 323.152344 182.054688 322.40625 181.90625 C 321.65625 181.757812 320.917969 181.574219 320.1875 181.351562 C 319.457031 181.128906 318.742188 180.875 318.035156 180.582031 C 317.332031 180.289062 316.644531 179.964844 315.972656 179.605469 C 315.296875 179.246094 314.644531 178.855469 314.011719 178.429688 C 313.378906 178.007812 312.765625 177.554688 312.175781 177.070312 C 311.585938 176.585938 311.023438 176.074219 310.484375 175.535156 C 309.945312 174.996094 309.433594 174.429688 308.949219 173.839844 C 308.464844 173.253906 308.011719 172.640625 307.585938 172.007812 C 307.164062 171.371094 306.773438 170.71875 306.414062 170.046875 C 306.050781 169.375 305.726562 168.683594 305.433594 167.980469 C 305.144531 167.277344 304.886719 166.558594 304.664062 165.828125 C 304.445312 165.097656 304.257812 164.359375 304.109375 163.613281 C 303.960938 162.863281 303.851562 162.109375 303.773438 161.351562 C 303.699219 160.59375 303.664062 159.832031 303.664062 159.070312 L 303.664062 85.027344 C 303.664062 84.265625 303.699219 83.503906 303.773438 82.746094 C 303.851562 81.988281 303.960938 81.234375 304.109375 80.488281 C 304.257812 79.738281 304.445312 79 304.664062 78.269531 C 304.886719 77.539062 305.144531 76.824219 305.433594 76.117188 C 305.726562 75.414062 306.050781 74.726562 306.414062 74.050781 C 306.773438 73.378906 307.164062 72.726562 307.585938 72.09375 C 308.011719 71.457031 308.464844 70.847656 308.949219 70.257812 C 309.433594 69.667969 309.945312 69.101562 310.484375 68.5625 C 311.023438 68.023438 311.585938 67.511719 312.175781 67.03125 C 312.765625 66.546875 313.378906 66.09375 314.011719 65.667969 C 314.644531 65.246094 315.296875 64.851562 315.972656 64.492188 C 316.644531 64.132812 317.332031 63.808594 318.035156 63.515625 C 318.742188 63.226562 319.457031 62.96875 320.1875 62.746094 C 320.917969 62.527344 321.65625 62.339844 322.40625 62.191406 C 323.152344 62.042969 323.90625 61.929688 324.664062 61.855469 C 325.425781 61.78125 326.183594 61.746094 326.949219 61.746094 Z M 326.949219 61.746094 " fill-opacity="1" fill-rule="nonzero"/></g><g clip-path="url(#13bc99152f)"><path fill="#6caeee" d="M 32.09375 61.746094 L 47.964844 61.746094 C 48.726562 61.746094 49.488281 61.78125 50.246094 61.855469 C 51.007812 61.929688 51.761719 62.042969 52.507812 62.191406 C 53.253906 62.339844 53.996094 62.527344 54.722656 62.746094 C 55.453125 62.96875 56.171875 63.226562 56.875 63.515625 C 57.582031 63.808594 58.269531 64.132812 58.941406 64.492188 C 59.613281 64.851562 60.265625 65.246094 60.902344 65.667969 C 61.535156 66.09375 62.148438 66.546875 62.738281 67.03125 C 63.328125 67.511719 63.890625 68.023438 64.429688 68.5625 C 64.96875 69.101562 65.480469 69.667969 65.964844 70.257812 C 66.449219 70.847656 66.902344 71.457031 67.324219 72.09375 C 67.75 72.726562 68.140625 73.378906 68.5 74.050781 C 68.859375 74.726562 69.1875 75.414062 69.476562 76.117188 C 69.769531 76.824219 70.027344 77.539062 70.246094 78.269531 C 70.46875 79 70.652344 79.738281 70.800781 80.488281 C 70.953125 81.234375 71.0625 81.988281 71.136719 82.746094 C 71.210938 83.503906 71.25 84.265625 71.25 85.027344 L 71.25 159.070312 C 71.25 159.832031 71.210938 160.59375 71.136719 161.351562 C 71.0625 162.109375 70.953125 162.863281 70.800781 163.613281 C 70.652344 164.359375 70.46875 165.097656 70.246094 165.828125 C 70.027344 166.558594 69.769531 167.277344 69.476562 167.980469 C 69.1875 168.683594 68.859375 169.375 68.5 170.046875 C 68.140625 170.71875 67.75 171.371094 67.324219 172.007812 C 66.902344 172.640625 66.449219 173.253906 65.964844 173.839844 C 65.480469 174.429688 64.96875 174.996094 64.429688 175.535156 C 63.890625 176.074219 63.328125 176.585938 62.738281 177.070312 C 62.148438 177.554688 61.535156 178.007812 60.902344 178.429688 C 60.265625 178.855469 59.613281 179.246094 58.941406 179.605469 C 58.269531 179.964844 57.582031 180.289062 56.875 180.582031 C 56.171875 180.875 55.453125 181.128906 54.722656 181.351562 C 53.996094 181.574219 53.253906 181.757812 52.507812 181.90625 C 51.761719 182.054688 51.007812 182.167969 50.246094 182.242188 C 49.488281 182.316406 48.726562 182.355469 47.964844 182.355469 L 32.09375 182.355469 C 31.332031 182.355469 30.570312 182.316406 29.8125 182.242188 C 29.050781 182.167969 28.296875 182.054688 27.550781 181.90625 C 26.800781 181.757812 26.0625 181.574219 25.332031 181.351562 C 24.605469 181.128906 23.886719 180.875 23.183594 180.582031 C 22.476562 180.289062 21.789062 179.964844 21.117188 179.605469 C 20.445312 179.246094 19.789062 178.855469 19.15625 178.429688 C 18.523438 178.007812 17.910156 177.554688 17.320312 177.070312 C 16.730469 176.585938 16.167969 176.074219 15.628906 175.535156 C 15.089844 174.996094 14.578125 174.429688 14.09375 173.839844 C 13.609375 173.253906 13.15625 172.640625 12.730469 172.007812 C 12.308594 171.371094 11.917969 170.71875 11.558594 170.046875 C 11.199219 169.375 10.871094 168.683594 10.582031 167.980469 C 10.289062 167.277344 10.03125 166.558594 9.8125 165.828125 C 9.589844 165.097656 9.40625 164.359375 9.253906 163.613281 C 9.105469 162.863281 8.996094 162.109375 8.921875 161.351562 C 8.84375 160.59375 8.808594 159.832031 8.808594 159.070312 L 8.808594 85.027344 C 8.808594 84.265625 8.84375 83.503906 8.921875 82.746094 C 8.996094 81.988281 9.105469 81.234375 9.253906 80.488281 C 9.40625 79.738281 9.589844 79 9.8125 78.269531 C 10.03125 77.539062 10.289062 76.824219 10.582031 76.117188 C 10.871094 75.414062 11.199219 74.726562 11.558594 74.050781 C 11.917969 73.378906 12.308594 72.726562 12.730469 72.09375 C 13.15625 71.457031 13.609375 70.847656 14.09375 70.257812 C 14.578125 69.667969 15.089844 69.101562 15.628906 68.5625 C 16.167969 68.023438 16.730469 67.511719 17.320312 67.03125 C 17.910156 66.546875 18.523438 66.09375 19.15625 65.667969 C 19.789062 65.246094 20.445312 64.851562 21.117188 64.492188 C 21.789062 64.132812 22.476562 63.808594 23.183594 63.515625 C 23.886719 63.226562 24.605469 62.96875 25.332031 62.746094 C 26.0625 62.527344 26.800781 62.339844 27.550781 62.191406 C 28.296875 62.042969 29.050781 61.929688 29.8125 61.855469 C 30.570312 61.78125 31.332031 61.746094 32.09375 61.746094 Z M 32.09375 61.746094 " fill-opacity="1" fill-rule="nonzero"/></g><g clip-path="url(#a0db80b672)"><path fill="#6caeee" d="M 326.949219 201.277344 L 342.820312 201.277344 C 343.582031 201.277344 344.34375 201.316406 345.101562 201.390625 C 345.859375 201.464844 346.613281 201.578125 347.363281 201.726562 C 348.109375 201.875 348.847656 202.058594 349.578125 202.28125 C 350.308594 202.503906 351.027344 202.757812 351.730469 203.050781 C 352.433594 203.34375 353.125 203.667969 353.796875 204.027344 C 354.46875 204.386719 355.121094 204.78125 355.757812 205.203125 C 356.390625 205.625 357.003906 206.082031 357.589844 206.566406 C 358.179688 207.046875 358.746094 207.558594 359.285156 208.097656 C 359.824219 208.636719 360.335938 209.203125 360.820312 209.792969 C 361.304688 210.382812 361.757812 210.992188 362.179688 211.628906 C 362.605469 212.261719 362.996094 212.914062 363.355469 213.585938 C 363.714844 214.261719 364.039062 214.949219 364.332031 215.652344 C 364.625 216.359375 364.878906 217.074219 365.101562 217.804688 C 365.324219 218.535156 365.507812 219.273438 365.65625 220.019531 C 365.804688 220.769531 365.917969 221.523438 365.992188 222.28125 C 366.066406 223.039062 366.105469 223.800781 366.105469 224.5625 L 366.105469 298.605469 C 366.105469 299.367188 366.066406 300.128906 365.992188 300.886719 C 365.917969 301.644531 365.804688 302.398438 365.65625 303.148438 C 365.507812 303.894531 365.324219 304.632812 365.101562 305.363281 C 364.878906 306.09375 364.625 306.8125 364.332031 307.515625 C 364.039062 308.21875 363.714844 308.910156 363.355469 309.582031 C 362.996094 310.253906 362.605469 310.90625 362.179688 311.539062 C 361.757812 312.175781 361.304688 312.785156 360.820312 313.375 C 360.335938 313.964844 359.824219 314.53125 359.285156 315.070312 C 358.746094 315.609375 358.179688 316.121094 357.589844 316.605469 C 357.003906 317.085938 356.390625 317.542969 355.757812 317.964844 C 355.121094 318.390625 354.46875 318.78125 353.796875 319.140625 C 353.125 319.5 352.433594 319.824219 351.730469 320.117188 C 351.027344 320.410156 350.308594 320.664062 349.578125 320.886719 C 348.847656 321.109375 348.109375 321.292969 347.363281 321.441406 C 346.613281 321.589844 345.859375 321.703125 345.101562 321.777344 C 344.34375 321.851562 343.582031 321.890625 342.820312 321.890625 L 326.949219 321.890625 C 326.183594 321.890625 325.425781 321.851562 324.664062 321.777344 C 323.90625 321.703125 323.152344 321.589844 322.40625 321.441406 C 321.65625 321.292969 320.917969 321.109375 320.1875 320.886719 C 319.457031 320.664062 318.742188 320.410156 318.035156 320.117188 C 317.332031 319.824219 316.644531 319.5 315.972656 319.140625 C 315.296875 318.78125 314.644531 318.390625 314.011719 317.964844 C 313.378906 317.542969 312.765625 317.085938 312.175781 316.605469 C 311.585938 316.121094 311.023438 315.609375 310.484375 315.070312 C 309.945312 314.53125 309.433594 313.964844 308.949219 313.375 C 308.464844 312.785156 308.011719 312.175781 307.585938 311.539062 C 307.164062 310.90625 306.773438 310.253906 306.414062 309.582031 C 306.050781 308.910156 305.726562 308.21875 305.433594 307.515625 C 305.144531 306.8125 304.886719 306.09375 304.664062 305.363281 C 304.445312 304.632812 304.257812 303.894531 304.109375 303.148438 C 303.960938 302.398438 303.851562 301.644531 303.773438 300.886719 C 303.699219 300.128906 303.664062 299.367188 303.664062 298.605469 L 303.664062 224.5625 C 303.664062 223.800781 303.699219 223.039062 303.773438 222.28125 C 303.851562 221.523438 303.960938 220.769531 304.109375 220.019531 C 304.257812 219.273438 304.445312 218.535156 304.664062 217.804688 C 304.886719 217.074219 305.144531 216.359375 305.433594 215.652344 C 305.726562 214.949219 306.050781 214.261719 306.414062 213.585938 C 306.773438 212.914062 307.164062 212.261719 307.585938 211.628906 C 308.011719 210.992188 308.464844 210.382812 308.949219 209.792969 C 309.433594 209.203125 309.945312 208.636719 310.484375 208.097656 C 311.023438 207.558594 311.585938 207.046875 312.175781 206.566406 C 312.765625 206.082031 313.378906 205.625 314.011719 205.203125 C 314.644531 204.78125 315.296875 204.386719 315.972656 204.027344 C 316.644531 203.667969 317.332031 203.34375 318.035156 203.050781 C 318.742188 202.757812 319.457031 202.503906 320.1875 202.28125 C 320.917969 202.058594 321.65625 201.875 322.40625 201.726562 C 323.152344 201.578125 323.90625 201.464844 324.664062 201.390625 C 325.425781 201.316406 326.183594 201.277344 326.949219 201.277344 Z M 326.949219 201.277344 " fill-opacity="1" fill-rule="nonzero"/></g><g clip-path="url(#d4ac3993b7)"><path fill="#6caeee" d="M 32.09375 201.277344 L 47.964844 201.277344 C 48.726562 201.277344 49.488281 201.316406 50.246094 201.390625 C 51.007812 201.464844 51.761719 201.578125 52.507812 201.726562 C 53.253906 201.875 53.996094 202.058594 54.722656 202.28125 C 55.453125 202.503906 56.171875 202.757812 56.875 203.050781 C 57.582031 203.34375 58.269531 203.667969 58.941406 204.027344 C 59.613281 204.386719 60.265625 204.78125 60.902344 205.203125 C 61.535156 205.625 62.148438 206.082031 62.738281 206.566406 C 63.328125 207.046875 63.890625 207.558594 64.429688 208.097656 C 64.96875 208.636719 65.480469 209.203125 65.964844 209.792969 C 66.449219 210.382812 66.902344 210.992188 67.324219 211.628906 C 67.75 212.261719 68.140625 212.914062 68.5 213.585938 C 68.859375 214.261719 69.1875 214.949219 69.476562 215.652344 C 69.769531 216.359375 70.027344 217.074219 70.246094 217.804688 C 70.46875 218.535156 70.652344 219.273438 70.800781 220.019531 C 70.953125 220.769531 71.0625 221.523438 71.136719 222.28125 C 71.210938 223.039062 71.25 223.800781 71.25 224.5625 L 71.25 298.605469 C 71.25 299.367188 71.210938 300.128906 71.136719 300.886719 C 71.0625 301.644531 70.953125 302.398438 70.800781 303.148438 C 70.652344 303.894531 70.46875 304.632812 70.246094 305.363281 C 70.027344 306.09375 69.769531 306.8125 69.476562 307.515625 C 69.1875 308.21875 68.859375 308.910156 68.5 309.582031 C 68.140625 310.253906 67.75 310.90625 67.324219 311.539062 C 66.902344 312.175781 66.449219 312.785156 65.964844 313.375 C 65.480469 313.964844 64.96875 314.53125 64.429688 315.070312 C 63.890625 315.609375 63.328125 316.121094 62.738281 316.605469 C 62.148438 317.085938 61.535156 317.542969 60.902344 317.964844 C 60.265625 318.390625 59.613281 318.78125 58.941406 319.140625 C 58.269531 319.5 57.582031 319.824219 56.875 320.117188 C 56.171875 320.410156 55.453125 320.664062 54.722656 320.886719 C 53.996094 321.109375 53.253906 321.292969 52.507812 321.441406 C 51.761719 321.589844 51.007812 321.703125 50.246094 321.777344 C 49.488281 321.851562 48.726562 321.890625 47.964844 321.890625 L 32.09375 321.890625 C 31.332031 321.890625 30.570312 321.851562 29.8125 321.777344 C 29.050781 321.703125 28.296875 321.589844 27.550781 321.441406 C 26.800781 321.292969 26.0625 321.109375 25.332031 320.886719 C 24.605469 320.664062 23.886719 320.410156 23.183594 320.117188 C 22.476562 319.824219 21.789062 319.5 21.117188 319.140625 C 20.445312 318.78125 19.789062 318.390625 19.15625 317.964844 C 18.523438 317.542969 17.910156 317.085938 17.320312 316.605469 C 16.730469 316.121094 16.167969 315.609375 15.628906 315.070312 C 15.089844 314.53125 14.578125 313.964844 14.09375 313.375 C 13.609375 312.785156 13.15625 312.175781 12.730469 311.539062 C 12.308594 310.90625 11.917969 310.253906 11.558594 309.582031 C 11.199219 308.910156 10.871094 308.21875 10.582031 307.515625 C 10.289062 306.8125 10.03125 306.09375 9.8125 305.363281 C 9.589844 304.632812 9.40625 303.894531 9.253906 303.148438 C 9.105469 302.398438 8.996094 301.644531 8.921875 300.886719 C 8.84375 300.128906 8.808594 299.367188 8.808594 298.605469 L 8.808594 224.5625 C 8.808594 223.800781 8.84375 223.039062 8.921875 222.28125 C 8.996094 221.523438 9.105469 220.769531 9.253906 220.019531 C 9.40625 219.273438 9.589844 218.535156 9.8125 217.804688 C 10.03125 217.074219 10.289062 216.359375 10.582031 215.652344 C 10.871094 214.949219 11.199219 214.261719 11.558594 213.585938 C 11.917969 212.914062 12.308594 212.261719 12.730469 211.628906 C 13.15625 210.992188 13.609375 210.382812 14.09375 209.792969 C 14.578125 209.203125 15.089844 208.636719 15.628906 208.097656 C 16.167969 207.558594 16.730469 207.046875 17.320312 206.566406 C 17.910156 206.082031 18.523438 205.625 19.15625 205.203125 C 19.789062 204.78125 20.445312 204.386719 21.117188 204.027344 C 21.789062 203.667969 22.476562 203.34375 23.183594 203.050781 C 23.886719 202.757812 24.605469 202.503906 25.332031 202.28125 C 26.0625 202.058594 26.800781 201.875 27.550781 201.726562 C 28.296875 201.578125 29.050781 201.464844 29.8125 201.390625 C 30.570312 201.316406 31.332031 201.277344 32.09375 201.277344 Z M 32.09375 201.277344 " fill-opacity="1" fill-rule="nonzero"/></g><path fill="#1769c3" d="M 154.796875 0.175781 L 228.835938 0.175781 C 229.601562 0.175781 230.359375 0.210938 231.121094 0.285156 C 231.878906 0.359375 232.632812 0.472656 233.378906 0.621094 C 234.128906 0.769531 234.867188 0.957031 235.597656 1.175781 C 236.328125 1.398438 237.042969 1.65625 237.746094 1.945312 C 238.453125 2.238281 239.140625 2.5625 239.8125 2.925781 C 240.484375 3.285156 241.140625 3.675781 241.773438 4.097656 C 242.40625 4.523438 243.019531 4.976562 243.609375 5.460938 C 244.199219 5.945312 244.761719 6.457031 245.300781 6.996094 C 245.839844 7.535156 246.351562 8.097656 246.835938 8.6875 C 247.320312 9.277344 247.773438 9.890625 248.199219 10.523438 C 248.621094 11.15625 249.011719 11.808594 249.371094 12.484375 C 249.730469 13.15625 250.058594 13.84375 250.347656 14.546875 C 250.640625 15.253906 250.898438 15.96875 251.121094 16.699219 C 251.339844 17.429688 251.527344 18.167969 251.675781 18.917969 C 251.824219 19.664062 251.933594 20.417969 252.011719 21.175781 C 252.085938 21.9375 252.121094 22.695312 252.121094 23.460938 L 252.121094 39.332031 C 252.121094 40.09375 252.085938 40.855469 252.011719 41.613281 C 251.933594 42.371094 251.824219 43.125 251.675781 43.875 C 251.527344 44.621094 251.339844 45.359375 251.121094 46.089844 C 250.898438 46.820312 250.640625 47.539062 250.347656 48.242188 C 250.058594 48.945312 249.730469 49.636719 249.371094 50.308594 C 249.011719 50.980469 248.621094 51.632812 248.199219 52.269531 C 247.773438 52.902344 247.320312 53.511719 246.835938 54.101562 C 246.351562 54.691406 245.839844 55.257812 245.300781 55.796875 C 244.761719 56.335938 244.199219 56.847656 243.609375 57.332031 C 243.019531 57.816406 242.40625 58.269531 241.773438 58.691406 C 241.140625 59.117188 240.484375 59.507812 239.8125 59.867188 C 239.140625 60.226562 238.453125 60.550781 237.746094 60.84375 C 237.042969 61.136719 236.328125 61.390625 235.597656 61.613281 C 234.867188 61.835938 234.128906 62.019531 233.378906 62.167969 C 232.632812 62.316406 231.878906 62.429688 231.121094 62.503906 C 230.359375 62.578125 229.601562 62.617188 228.835938 62.617188 L 154.796875 62.617188 C 154.035156 62.617188 153.273438 62.578125 152.515625 62.503906 C 151.753906 62.429688 151 62.316406 150.253906 62.167969 C 149.507812 62.019531 148.765625 61.835938 148.039062 61.613281 C 147.308594 61.390625 146.589844 61.136719 145.886719 60.84375 C 145.179688 60.550781 144.492188 60.226562 143.820312 59.867188 C 143.148438 59.507812 142.496094 59.117188 141.859375 58.691406 C 141.226562 58.269531 140.613281 57.816406 140.023438 57.332031 C 139.433594 56.847656 138.871094 56.335938 138.332031 55.796875 C 137.792969 55.257812 137.28125 54.691406 136.796875 54.101562 C 136.3125 53.511719 135.859375 52.902344 135.4375 52.269531 C 135.011719 51.632812 134.621094 50.980469 134.261719 50.308594 C 133.902344 49.636719 133.574219 48.945312 133.285156 48.242188 C 132.992188 47.539062 132.734375 46.820312 132.515625 46.089844 C 132.292969 45.359375 132.109375 44.621094 131.960938 43.875 C 131.808594 43.125 131.699219 42.371094 131.625 41.613281 C 131.550781 40.855469 131.511719 40.09375 131.511719 39.332031 L 131.511719 23.460938 C 131.511719 22.695312 131.550781 21.9375 131.625 21.175781 C 131.699219 20.417969 131.808594 19.664062 131.960938 18.917969 C 132.109375 18.167969 132.292969 17.429688 132.515625 16.699219 C 132.734375 15.96875 132.992188 15.253906 133.285156 14.546875 C 133.574219 13.84375 133.902344 13.15625 134.261719 12.484375 C 134.621094 11.808594 135.011719 11.15625 135.4375 10.523438 C 135.859375 9.890625 136.3125 9.277344 136.796875 8.6875 C 137.28125 8.097656 137.792969 7.535156 138.332031 6.996094 C 138.871094 6.457031 139.433594 5.945312 140.023438 5.460938 C 140.613281 4.976562 141.226562 4.523438 141.859375 4.097656 C 142.496094 3.675781 143.148438 3.285156 143.820312 2.925781 C 144.492188 2.5625 145.179688 2.238281 145.886719 1.945312 C 146.589844 1.65625 147.308594 1.398438 148.039062 1.175781 C 148.765625 0.957031 149.507812 0.769531 150.253906 0.621094 C 151 0.472656 151.753906 0.359375 152.515625 0.285156 C 153.273438 0.210938 154.035156 0.175781 154.796875 0.175781 Z M 154.796875 0.175781 " fill-opacity="1" fill-rule="nonzero"/><path fill="#6caeee" d="M 215.84375 312.472656 L 289.882812 312.472656 C 290.644531 312.472656 291.40625 312.507812 292.167969 312.582031 C 292.925781 312.65625 293.679688 312.769531 294.425781 312.917969 C 295.175781 313.066406 295.914062 313.253906 296.644531 313.472656 C 297.371094 313.695312 298.089844 313.953125 298.792969 314.242188 C 299.5 314.535156 300.1875 314.859375 300.859375 315.21875 C 301.53125 315.578125 302.1875 315.972656 302.820312 316.394531 C 303.453125 316.820312 304.066406 317.273438 304.65625 317.757812 C 305.246094 318.238281 305.808594 318.75 306.347656 319.289062 C 306.886719 319.832031 307.398438 320.394531 307.882812 320.984375 C 308.367188 321.574219 308.820312 322.183594 309.246094 322.820312 C 309.667969 323.453125 310.058594 324.105469 310.417969 324.78125 C 310.777344 325.453125 311.105469 326.140625 311.394531 326.84375 C 311.6875 327.550781 311.945312 328.265625 312.164062 328.996094 C 312.386719 329.726562 312.574219 330.464844 312.722656 331.214844 C 312.871094 331.960938 312.980469 332.714844 313.054688 333.472656 C 313.132812 334.230469 313.167969 334.992188 313.167969 335.753906 L 313.167969 351.628906 C 313.167969 352.390625 313.132812 353.152344 313.054688 353.910156 C 312.980469 354.667969 312.871094 355.421875 312.722656 356.171875 C 312.574219 356.917969 312.386719 357.65625 312.164062 358.386719 C 311.945312 359.117188 311.6875 359.835938 311.394531 360.539062 C 311.105469 361.242188 310.777344 361.933594 310.417969 362.605469 C 310.058594 363.277344 309.667969 363.929688 309.246094 364.5625 C 308.820312 365.199219 308.367188 365.808594 307.882812 366.398438 C 307.398438 366.988281 306.886719 367.554688 306.347656 368.09375 C 305.808594 368.632812 305.246094 369.144531 304.65625 369.628906 C 304.066406 370.109375 303.453125 370.566406 302.820312 370.988281 C 302.1875 371.414062 301.53125 371.804688 300.859375 372.164062 C 300.1875 372.523438 299.5 372.847656 298.792969 373.140625 C 298.089844 373.433594 297.371094 373.6875 296.644531 373.910156 C 295.914062 374.132812 295.175781 374.316406 294.425781 374.464844 C 293.679688 374.613281 292.925781 374.726562 292.167969 374.800781 C 291.40625 374.875 290.644531 374.914062 289.882812 374.914062 L 215.84375 374.914062 C 215.082031 374.914062 214.320312 374.875 213.5625 374.800781 C 212.800781 374.726562 212.046875 374.613281 211.300781 374.464844 C 210.550781 374.316406 209.8125 374.132812 209.082031 373.910156 C 208.355469 373.6875 207.636719 373.433594 206.933594 373.140625 C 206.226562 372.847656 205.539062 372.523438 204.867188 372.164062 C 204.195312 371.804688 203.539062 371.414062 202.90625 370.988281 C 202.273438 370.566406 201.660156 370.109375 201.070312 369.628906 C 200.480469 369.144531 199.917969 368.632812 199.378906 368.09375 C 198.839844 367.554688 198.328125 366.988281 197.84375 366.398438 C 197.359375 365.808594 196.90625 365.199219 196.480469 364.5625 C 196.058594 363.929688 195.667969 363.277344 195.308594 362.605469 C 194.949219 361.933594 194.621094 361.242188 194.332031 360.539062 C 194.039062 359.835938 193.78125 359.117188 193.5625 358.386719 C 193.339844 357.65625 193.152344 356.917969 193.003906 356.171875 C 192.855469 355.421875 192.746094 354.667969 192.671875 353.910156 C 192.59375 353.152344 192.558594 352.390625 192.558594 351.628906 L 192.558594 335.753906 C 192.558594 334.992188 192.59375 334.230469 192.671875 333.472656 C 192.746094 332.714844 192.855469 331.960938 193.003906 331.214844 C 193.152344 330.464844 193.339844 329.726562 193.5625 328.996094 C 193.78125 328.265625 194.039062 327.550781 194.332031 326.84375 C 194.621094 326.140625 194.949219 325.453125 195.308594 324.78125 C 195.667969 324.105469 196.058594 323.453125 196.480469 322.820312 C 196.90625 322.183594 197.359375 321.574219 197.84375 320.984375 C 198.328125 320.394531 198.839844 319.832031 199.378906 319.289062 C 199.917969 318.75 200.480469 318.238281 201.070312 317.757812 C 201.660156 317.273438 202.273438 316.820312 202.90625 316.394531 C 203.539062 315.972656 204.195312 315.578125 204.867188 315.21875 C 205.539062 314.859375 206.226562 314.535156 206.933594 314.242188 C 207.636719 313.953125 208.355469 313.695312 209.082031 313.472656 C 209.8125 313.253906 210.550781 313.066406 211.300781 312.917969 C 212.046875 312.769531 212.800781 312.65625 213.5625 312.582031 C 214.320312 312.507812 215.082031 312.472656 215.84375 312.472656 Z M 215.84375 312.472656 " fill-opacity="1" fill-rule="nonzero"/><path fill="#6caeee" d="M 85.027344 312.472656 L 159.070312 312.472656 C 159.832031 312.472656 160.59375 312.507812 161.351562 312.582031 C 162.109375 312.65625 162.863281 312.769531 163.613281 312.917969 C 164.359375 313.066406 165.097656 313.253906 165.828125 313.472656 C 166.558594 313.695312 167.277344 313.953125 167.980469 314.242188 C 168.683594 314.535156 169.375 314.859375 170.046875 315.21875 C 170.71875 315.578125 171.371094 315.972656 172.007812 316.394531 C 172.640625 316.820312 173.253906 317.273438 173.839844 317.757812 C 174.429688 318.238281 174.996094 318.75 175.535156 319.289062 C 176.074219 319.832031 176.585938 320.394531 177.070312 320.984375 C 177.554688 321.574219 178.007812 322.183594 178.429688 322.820312 C 178.855469 323.453125 179.246094 324.105469 179.605469 324.78125 C 179.964844 325.453125 180.289062 326.140625 180.582031 326.84375 C 180.875 327.550781 181.128906 328.265625 181.351562 328.996094 C 181.574219 329.726562 181.757812 330.464844 181.90625 331.214844 C 182.054688 331.960938 182.167969 332.714844 182.242188 333.472656 C 182.316406 334.230469 182.355469 334.992188 182.355469 335.753906 L 182.355469 351.628906 C 182.355469 352.390625 182.316406 353.152344 182.242188 353.910156 C 182.167969 354.667969 182.054688 355.421875 181.90625 356.171875 C 181.757812 356.917969 181.574219 357.65625 181.351562 358.386719 C 181.128906 359.117188 180.875 359.835938 180.582031 360.539062 C 180.289062 361.242188 179.964844 361.933594 179.605469 362.605469 C 179.246094 363.277344 178.855469 363.929688 178.429688 364.5625 C 178.007812 365.199219 177.554688 365.808594 177.070312 366.398438 C 176.585938 366.988281 176.074219 367.554688 175.535156 368.09375 C 174.996094 368.632812 174.429688 369.144531 173.839844 369.628906 C 173.253906 370.109375 172.640625 370.566406 172.007812 370.988281 C 171.371094 371.414062 170.71875 371.804688 170.046875 372.164062 C 169.375 372.523438 168.683594 372.847656 167.980469 373.140625 C 167.277344 373.433594 166.558594 373.6875 165.828125 373.910156 C 165.097656 374.132812 164.359375 374.316406 163.613281 374.464844 C 162.863281 374.613281 162.109375 374.726562 161.351562 374.800781 C 160.59375 374.875 159.832031 374.914062 159.070312 374.914062 L 85.027344 374.914062 C 84.265625 374.914062 83.503906 374.875 82.746094 374.800781 C 81.988281 374.726562 81.234375 374.613281 80.488281 374.464844 C 79.738281 374.316406 79 374.132812 78.269531 373.910156 C 77.539062 373.6875 76.824219 373.433594 76.117188 373.140625 C 75.414062 372.847656 74.726562 372.523438 74.050781 372.164062 C 73.378906 371.804688 72.726562 371.414062 72.09375 370.988281 C 71.457031 370.566406 70.847656 370.109375 70.257812 369.628906 C 69.667969 369.144531 69.101562 368.632812 68.5625 368.09375 C 68.023438 367.554688 67.511719 366.988281 67.03125 366.398438 C 66.546875 365.808594 66.09375 365.199219 65.667969 364.5625 C 65.246094 363.929688 64.851562 363.277344 64.492188 362.605469 C 64.132812 361.933594 63.808594 361.242188 63.515625 360.539062 C 63.226562 359.835938 62.96875 359.117188 62.746094 358.386719 C 62.527344 357.65625 62.339844 356.917969 62.191406 356.171875 C 62.042969 355.421875 61.929688 354.667969 61.855469 353.910156 C 61.78125 353.152344 61.746094 352.390625 61.746094 351.628906 L 61.746094 335.753906 C 61.746094 334.992188 61.78125 334.230469 61.855469 333.472656 C 61.929688 332.714844 62.042969 331.960938 62.191406 331.214844 C 62.339844 330.464844 62.527344 329.726562 62.746094 328.996094 C 62.96875 328.265625 63.226562 327.550781 63.515625 326.84375 C 63.808594 326.140625 64.132812 325.453125 64.492188 324.78125 C 64.851562 324.105469 65.246094 323.453125 65.667969 322.820312 C 66.09375 322.183594 66.546875 321.574219 67.03125 320.984375 C 67.511719 320.394531 68.023438 319.832031 68.5625 319.289062 C 69.101562 318.75 69.667969 318.238281 70.257812 317.757812 C 70.847656 317.273438 71.457031 316.820312 72.09375 316.394531 C 72.726562 315.972656 73.378906 315.578125 74.050781 315.21875 C 74.726562 314.859375 75.414062 314.535156 76.117188 314.242188 C 76.824219 313.953125 77.539062 313.695312 78.269531 313.472656 C 79 313.253906 79.738281 313.066406 80.488281 312.917969 C 81.234375 312.769531 81.988281 312.65625 82.746094 312.582031 C 83.503906 312.507812 84.265625 312.472656 85.027344 312.472656 Z M 85.027344 312.472656 " fill-opacity="1" fill-rule="nonzero"/><path fill="#a2c9ee" d="M 92.964844 301.65625 L 283.429688 301.65625 C 284.003906 301.65625 284.570312 301.601562 285.132812 301.488281 C 285.691406 301.378906 286.238281 301.210938 286.765625 300.992188 C 287.296875 300.773438 287.800781 300.503906 288.273438 300.1875 C 288.75 299.867188 289.191406 299.507812 289.597656 299.101562 C 290 298.699219 290.363281 298.257812 290.679688 297.78125 C 291 297.304688 291.269531 296.800781 291.488281 296.273438 C 291.707031 295.746094 291.871094 295.199219 291.984375 294.636719 C 292.09375 294.074219 292.152344 293.507812 292.152344 292.9375 L 292.152344 83.632812 C 292.152344 83.0625 292.09375 82.492188 291.984375 81.933594 C 291.871094 81.371094 291.707031 80.824219 291.488281 80.296875 C 291.269531 79.765625 291 79.265625 290.679688 78.789062 C 290.363281 78.3125 290 77.871094 289.597656 77.46875 C 289.191406 77.0625 288.75 76.699219 288.273438 76.382812 C 287.800781 76.0625 287.296875 75.796875 286.765625 75.578125 C 286.238281 75.359375 285.691406 75.191406 285.132812 75.082031 C 284.570312 74.96875 284.003906 74.914062 283.429688 74.914062 L 221.511719 74.914062 C 220.9375 74.914062 220.371094 74.96875 219.808594 75.082031 C 219.25 75.191406 218.703125 75.359375 218.175781 75.578125 C 217.644531 75.796875 217.144531 76.0625 216.667969 76.382812 C 216.191406 76.699219 215.75 77.0625 215.34375 77.46875 C 214.941406 77.871094 214.578125 78.3125 214.261719 78.789062 C 213.941406 79.265625 213.671875 79.765625 213.453125 80.296875 C 213.234375 80.824219 213.070312 81.371094 212.957031 81.933594 C 212.847656 82.492188 212.789062 83.0625 212.789062 83.632812 L 212.789062 226.570312 L 160.464844 226.570312 L 160.464844 83.632812 C 160.464844 83.0625 160.410156 82.492188 160.296875 81.933594 C 160.1875 81.371094 160.019531 80.824219 159.800781 80.296875 C 159.582031 79.765625 159.3125 79.265625 158.996094 78.789062 C 158.675781 78.3125 158.316406 77.871094 157.910156 77.46875 C 157.507812 77.0625 157.066406 76.699219 156.589844 76.382812 C 156.113281 76.0625 155.609375 75.796875 155.082031 75.578125 C 154.550781 75.359375 154.007812 75.191406 153.445312 75.082031 C 152.882812 74.96875 152.316406 74.914062 151.746094 74.914062 L 92.964844 74.914062 C 92.390625 74.914062 91.824219 74.96875 91.265625 75.082031 C 90.703125 75.191406 90.15625 75.359375 89.628906 75.578125 C 89.097656 75.796875 88.597656 76.0625 88.121094 76.382812 C 87.644531 76.699219 87.203125 77.0625 86.796875 77.46875 C 86.394531 77.871094 86.03125 78.3125 85.714844 78.789062 C 85.394531 79.265625 85.128906 79.765625 84.90625 80.296875 C 84.6875 80.824219 84.523438 81.371094 84.410156 81.933594 C 84.300781 82.492188 84.246094 83.0625 84.246094 83.632812 L 84.246094 292.9375 C 84.246094 293.507812 84.300781 294.074219 84.410156 294.636719 C 84.523438 295.199219 84.6875 295.746094 84.90625 296.273438 C 85.128906 296.800781 85.394531 297.304688 85.714844 297.78125 C 86.03125 298.257812 86.394531 298.699219 86.796875 299.101562 C 87.203125 299.507812 87.644531 299.867188 88.121094 300.1875 C 88.597656 300.503906 89.097656 300.773438 89.628906 300.992188 C 90.15625 301.210938 90.703125 301.378906 91.265625 301.488281 C 91.824219 301.601562 92.390625 301.65625 92.964844 301.65625 Z M 92.964844 301.65625 " fill-opacity="1" fill-rule="nonzero"/></svg>