<svg xmlns="http://www.w3.org/2000/svg" xmlns:xlink="http://www.w3.org/1999/xlink" width="3780" zoomAndPan="magnify" viewBox="0 0 2835 566.999966" height="756" preserveAspectRatio="xMidYMid meet" version="1.0"><defs><g/><clipPath id="a41cf6da5c"><path d="M 502 93 L 597.441406 93 L 597.441406 276 L 502 276 Z M 502 93 " clip-rule="nonzero"/></clipPath><clipPath id="734520d0da"><path d="M 56.691406 93 L 152 93 L 152 276 L 56.691406 276 Z M 56.691406 93 " clip-rule="nonzero"/></clipPath><clipPath id="f9f598a45a"><path d="M 502 304 L 597.441406 304 L 597.441406 487 L 502 487 Z M 502 304 " clip-rule="nonzero"/></clipPath><clipPath id="d6711efd63"><path d="M 56.691406 304 L 152 304 L 152 487 L 56.691406 487 Z M 56.691406 304 " clip-rule="nonzero"/></clipPath></defs><g clip-path="url(#a41cf6da5c)"><path fill="#000000" d="M 537.859375 93.34375 L 561.855469 93.34375 C 563.007812 93.34375 564.15625 93.398438 565.304688 93.511719 C 566.453125 93.625 567.589844 93.796875 568.722656 94.019531 C 569.851562 94.246094 570.96875 94.523438 572.074219 94.859375 C 573.175781 95.195312 574.261719 95.582031 575.324219 96.023438 C 576.390625 96.464844 577.429688 96.957031 578.449219 97.5 C 579.464844 98.042969 580.453125 98.636719 581.410156 99.277344 C 582.371094 99.917969 583.292969 100.601562 584.1875 101.335938 C 585.078125 102.066406 585.929688 102.839844 586.746094 103.652344 C 587.558594 104.46875 588.332031 105.324219 589.066406 106.214844 C 589.796875 107.105469 590.484375 108.03125 591.121094 108.988281 C 591.761719 109.945312 592.355469 110.933594 592.898438 111.953125 C 593.441406 112.96875 593.933594 114.007812 594.375 115.074219 C 594.816406 116.140625 595.207031 117.222656 595.539062 118.328125 C 595.875 119.429688 596.15625 120.546875 596.378906 121.679688 C 596.605469 122.808594 596.773438 123.949219 596.886719 125.09375 C 597 126.242188 597.054688 127.390625 597.054688 128.546875 L 597.054688 240.480469 C 597.054688 241.632812 597 242.78125 596.886719 243.929688 C 596.773438 245.078125 596.605469 246.214844 596.378906 247.347656 C 596.15625 248.476562 595.875 249.59375 595.539062 250.695312 C 595.207031 251.800781 594.816406 252.882812 594.375 253.949219 C 593.933594 255.015625 593.441406 256.054688 592.898438 257.074219 C 592.355469 258.089844 591.761719 259.078125 591.121094 260.035156 C 590.484375 260.996094 589.796875 261.917969 589.066406 262.808594 C 588.332031 263.703125 587.558594 264.554688 586.746094 265.371094 C 585.929688 266.183594 585.078125 266.957031 584.1875 267.691406 C 583.292969 268.421875 582.371094 269.105469 581.410156 269.746094 C 580.453125 270.386719 579.464844 270.980469 578.449219 271.523438 C 577.429688 272.066406 576.390625 272.558594 575.324219 273 C 574.261719 273.441406 573.175781 273.828125 572.074219 274.164062 C 570.96875 274.5 569.851562 274.777344 568.722656 275.003906 C 567.589844 275.230469 566.453125 275.398438 565.304688 275.511719 C 564.15625 275.625 563.007812 275.679688 561.855469 275.679688 L 537.859375 275.679688 C 536.707031 275.679688 535.554688 275.625 534.410156 275.511719 C 533.261719 275.398438 532.121094 275.230469 530.992188 275.003906 C 529.859375 274.777344 528.742188 274.5 527.640625 274.164062 C 526.539062 273.828125 525.453125 273.441406 524.386719 273 C 523.324219 272.558594 522.28125 272.066406 521.265625 271.523438 C 520.25 270.980469 519.261719 270.386719 518.300781 269.746094 C 517.34375 269.105469 516.417969 268.421875 515.527344 267.691406 C 514.636719 266.957031 513.78125 266.183594 512.96875 265.371094 C 512.152344 264.554688 511.378906 263.703125 510.648438 262.808594 C 509.917969 261.917969 509.230469 260.996094 508.589844 260.035156 C 507.949219 259.078125 507.355469 258.089844 506.8125 257.074219 C 506.269531 256.054688 505.777344 255.015625 505.335938 253.949219 C 504.894531 252.882812 504.507812 251.800781 504.171875 250.695312 C 503.839844 249.59375 503.558594 248.476562 503.332031 247.347656 C 503.109375 246.214844 502.941406 245.078125 502.828125 243.929688 C 502.714844 242.78125 502.65625 241.632812 502.65625 240.480469 L 502.65625 128.546875 C 502.65625 127.390625 502.714844 126.242188 502.828125 125.09375 C 502.941406 123.949219 503.109375 122.808594 503.332031 121.679688 C 503.558594 120.546875 503.839844 119.429688 504.171875 118.328125 C 504.507812 117.222656 504.894531 116.140625 505.335938 115.074219 C 505.777344 114.007812 506.269531 112.96875 506.8125 111.953125 C 507.355469 110.933594 507.949219 109.945312 508.589844 108.988281 C 509.230469 108.03125 509.917969 107.105469 510.648438 106.214844 C 511.378906 105.324219 512.152344 104.46875 512.96875 103.652344 C 513.78125 102.839844 514.636719 102.066406 515.527344 101.335938 C 516.417969 100.601562 517.34375 99.917969 518.300781 99.277344 C 519.261719 98.636719 520.25 98.042969 521.265625 97.5 C 522.28125 96.957031 523.324219 96.464844 524.386719 96.023438 C 525.453125 95.582031 526.539062 95.195312 527.640625 94.859375 C 528.742188 94.523438 529.859375 94.246094 530.992188 94.019531 C 532.121094 93.796875 533.261719 93.625 534.410156 93.511719 C 535.554688 93.398438 536.707031 93.34375 537.859375 93.34375 Z M 537.859375 93.34375 " fill-opacity="1" fill-rule="nonzero"/></g><g clip-path="url(#734520d0da)"><path fill="#000000" d="M 92.101562 93.34375 L 116.097656 93.34375 C 117.25 93.34375 118.402344 93.398438 119.546875 93.511719 C 120.695312 93.625 121.835938 93.796875 122.964844 94.019531 C 124.097656 94.246094 125.214844 94.523438 126.316406 94.859375 C 127.421875 95.195312 128.503906 95.582031 129.570312 96.023438 C 130.632812 96.464844 131.675781 96.957031 132.691406 97.5 C 133.710938 98.042969 134.695312 98.636719 135.65625 99.277344 C 136.613281 99.917969 137.539062 100.601562 138.429688 101.335938 C 139.320312 102.066406 140.175781 102.839844 140.988281 103.652344 C 141.804688 104.46875 142.578125 105.324219 143.308594 106.214844 C 144.039062 107.105469 144.726562 108.03125 145.367188 108.988281 C 146.007812 109.945312 146.601562 110.933594 147.144531 111.953125 C 147.6875 112.96875 148.179688 114.007812 148.621094 115.074219 C 149.0625 116.140625 149.449219 117.222656 149.785156 118.328125 C 150.117188 119.429688 150.398438 120.546875 150.625 121.679688 C 150.847656 122.808594 151.015625 123.949219 151.128906 125.09375 C 151.242188 126.242188 151.300781 127.390625 151.300781 128.546875 L 151.300781 240.480469 C 151.300781 241.632812 151.242188 242.78125 151.128906 243.929688 C 151.015625 245.078125 150.847656 246.214844 150.625 247.347656 C 150.398438 248.476562 150.117188 249.59375 149.785156 250.695312 C 149.449219 251.800781 149.0625 252.882812 148.621094 253.949219 C 148.179688 255.015625 147.6875 256.054688 147.144531 257.074219 C 146.601562 258.089844 146.007812 259.078125 145.367188 260.035156 C 144.726562 260.996094 144.039062 261.917969 143.308594 262.808594 C 142.578125 263.703125 141.804688 264.554688 140.988281 265.371094 C 140.175781 266.183594 139.320312 266.957031 138.429688 267.691406 C 137.539062 268.421875 136.613281 269.105469 135.65625 269.746094 C 134.695312 270.386719 133.710938 270.980469 132.691406 271.523438 C 131.675781 272.066406 130.632812 272.558594 129.570312 273 C 128.503906 273.441406 127.421875 273.828125 126.316406 274.164062 C 125.214844 274.5 124.097656 274.777344 122.964844 275.003906 C 121.835938 275.230469 120.695312 275.398438 119.546875 275.511719 C 118.402344 275.625 117.25 275.679688 116.097656 275.679688 L 92.101562 275.679688 C 90.949219 275.679688 89.800781 275.625 88.652344 275.511719 C 87.503906 275.398438 86.367188 275.230469 85.234375 275.003906 C 84.105469 274.777344 82.988281 274.5 81.882812 274.164062 C 80.78125 273.828125 79.695312 273.441406 78.632812 273 C 77.566406 272.558594 76.527344 272.066406 75.507812 271.523438 C 74.492188 270.980469 73.503906 270.386719 72.546875 269.746094 C 71.585938 269.105469 70.664062 268.421875 69.773438 267.691406 C 68.878906 266.957031 68.027344 266.183594 67.210938 265.371094 C 66.398438 264.554688 65.625 263.703125 64.890625 262.808594 C 64.160156 261.917969 63.472656 260.996094 62.835938 260.035156 C 62.195312 259.078125 61.601562 258.089844 61.058594 257.074219 C 60.515625 256.054688 60.023438 255.015625 59.582031 253.949219 C 59.140625 252.882812 58.753906 251.800781 58.417969 250.695312 C 58.082031 249.59375 57.804688 248.476562 57.578125 247.347656 C 57.351562 246.214844 57.183594 245.078125 57.070312 243.929688 C 56.957031 242.78125 56.902344 241.632812 56.902344 240.480469 L 56.902344 128.546875 C 56.902344 127.390625 56.957031 126.242188 57.070312 125.09375 C 57.183594 123.949219 57.351562 122.808594 57.578125 121.679688 C 57.804688 120.546875 58.082031 119.429688 58.417969 118.328125 C 58.753906 117.222656 59.140625 116.140625 59.582031 115.074219 C 60.023438 114.007812 60.515625 112.96875 61.058594 111.953125 C 61.601562 110.933594 62.195312 109.945312 62.835938 108.988281 C 63.472656 108.03125 64.160156 107.105469 64.890625 106.214844 C 65.625 105.324219 66.398438 104.46875 67.210938 103.652344 C 68.027344 102.839844 68.878906 102.066406 69.773438 101.335938 C 70.664062 100.601562 71.585938 99.917969 72.546875 99.277344 C 73.503906 98.636719 74.492188 98.042969 75.507812 97.5 C 76.527344 96.957031 77.566406 96.464844 78.632812 96.023438 C 79.695312 95.582031 80.78125 95.195312 81.882812 94.859375 C 82.988281 94.523438 84.105469 94.246094 85.234375 94.019531 C 86.367188 93.796875 87.503906 93.625 88.652344 93.511719 C 89.800781 93.398438 90.949219 93.34375 92.101562 93.34375 Z M 92.101562 93.34375 " fill-opacity="1" fill-rule="nonzero"/></g><g clip-path="url(#f9f598a45a)"><path fill="#000000" d="M 537.859375 304.289062 L 561.855469 304.289062 C 563.007812 304.289062 564.15625 304.347656 565.304688 304.460938 C 566.453125 304.574219 567.589844 304.742188 568.722656 304.964844 C 569.851562 305.191406 570.96875 305.472656 572.074219 305.804688 C 573.175781 306.140625 574.261719 306.527344 575.324219 306.96875 C 576.390625 307.410156 577.429688 307.902344 578.449219 308.445312 C 579.464844 308.988281 580.453125 309.582031 581.410156 310.222656 C 582.371094 310.863281 583.292969 311.550781 584.1875 312.28125 C 585.078125 313.011719 585.929688 313.785156 586.746094 314.601562 C 587.558594 315.414062 588.332031 316.269531 589.066406 317.160156 C 589.796875 318.050781 590.484375 318.976562 591.121094 319.933594 C 591.761719 320.894531 592.355469 321.878906 592.898438 322.898438 C 593.441406 323.914062 593.933594 324.957031 594.375 326.019531 C 594.816406 327.085938 595.207031 328.167969 595.539062 329.273438 C 595.875 330.375 596.15625 331.492188 596.378906 332.625 C 596.605469 333.753906 596.773438 334.894531 596.886719 336.042969 C 597 337.1875 597.054688 338.339844 597.054688 339.492188 L 597.054688 451.425781 C 597.054688 452.578125 597 453.726562 596.886719 454.875 C 596.773438 456.023438 596.605469 457.160156 596.378906 458.292969 C 596.15625 459.421875 595.875 460.539062 595.539062 461.644531 C 595.207031 462.746094 594.816406 463.832031 594.375 464.894531 C 593.933594 465.960938 593.441406 467 592.898438 468.019531 C 592.355469 469.035156 591.761719 470.023438 591.121094 470.980469 C 590.484375 471.941406 589.796875 472.863281 589.066406 473.757812 C 588.332031 474.648438 587.558594 475.5 586.746094 476.316406 C 585.929688 477.132812 585.078125 477.90625 584.1875 478.636719 C 583.292969 479.367188 582.371094 480.054688 581.410156 480.695312 C 580.453125 481.335938 579.464844 481.925781 578.449219 482.46875 C 577.429688 483.011719 576.390625 483.503906 575.324219 483.945312 C 574.261719 484.386719 573.175781 484.777344 572.074219 485.109375 C 570.96875 485.445312 569.851562 485.726562 568.722656 485.949219 C 567.589844 486.175781 566.453125 486.34375 565.304688 486.457031 C 564.15625 486.570312 563.007812 486.625 561.855469 486.625 L 537.859375 486.625 C 536.707031 486.625 535.554688 486.570312 534.410156 486.457031 C 533.261719 486.34375 532.121094 486.175781 530.992188 485.949219 C 529.859375 485.726562 528.742188 485.445312 527.640625 485.109375 C 526.539062 484.777344 525.453125 484.386719 524.386719 483.945312 C 523.324219 483.503906 522.28125 483.011719 521.265625 482.46875 C 520.25 481.925781 519.261719 481.335938 518.300781 480.695312 C 517.34375 480.054688 516.417969 479.367188 515.527344 478.636719 C 514.636719 477.90625 513.78125 477.132812 512.96875 476.316406 C 512.152344 475.5 511.378906 474.648438 510.648438 473.757812 C 509.917969 472.863281 509.230469 471.941406 508.589844 470.980469 C 507.949219 470.023438 507.355469 469.035156 506.8125 468.019531 C 506.269531 467 505.777344 465.960938 505.335938 464.894531 C 504.894531 463.832031 504.507812 462.746094 504.171875 461.644531 C 503.839844 460.539062 503.558594 459.421875 503.332031 458.292969 C 503.109375 457.160156 502.941406 456.023438 502.828125 454.875 C 502.714844 453.726562 502.65625 452.578125 502.65625 451.425781 L 502.65625 339.492188 C 502.65625 338.339844 502.714844 337.1875 502.828125 336.042969 C 502.941406 334.894531 503.109375 333.753906 503.332031 332.625 C 503.558594 331.492188 503.839844 330.375 504.171875 329.273438 C 504.507812 328.167969 504.894531 327.085938 505.335938 326.019531 C 505.777344 324.957031 506.269531 323.914062 506.8125 322.898438 C 507.355469 321.878906 507.949219 320.894531 508.589844 319.933594 C 509.230469 318.976562 509.917969 318.050781 510.648438 317.160156 C 511.378906 316.269531 512.152344 315.414062 512.96875 314.601562 C 513.78125 313.785156 514.636719 313.011719 515.527344 312.28125 C 516.417969 311.550781 517.34375 310.863281 518.300781 310.222656 C 519.261719 309.582031 520.25 308.988281 521.265625 308.445312 C 522.28125 307.902344 523.324219 307.410156 524.386719 306.96875 C 525.453125 306.527344 526.539062 306.140625 527.640625 305.804688 C 528.742188 305.472656 529.859375 305.191406 530.992188 304.964844 C 532.121094 304.742188 533.261719 304.574219 534.410156 304.460938 C 535.554688 304.347656 536.707031 304.289062 537.859375 304.289062 Z M 537.859375 304.289062 " fill-opacity="1" fill-rule="nonzero"/></g><g clip-path="url(#d6711efd63)"><path fill="#000000" d="M 92.101562 304.289062 L 116.097656 304.289062 C 117.25 304.289062 118.402344 304.347656 119.546875 304.460938 C 120.695312 304.574219 121.835938 304.742188 122.964844 304.964844 C 124.097656 305.191406 125.214844 305.472656 126.316406 305.804688 C 127.421875 306.140625 128.503906 306.527344 129.570312 306.96875 C 130.632812 307.410156 131.675781 307.902344 132.691406 308.445312 C 133.710938 308.988281 134.695312 309.582031 135.65625 310.222656 C 136.613281 310.863281 137.539062 311.550781 138.429688 312.28125 C 139.320312 313.011719 140.175781 313.785156 140.988281 314.601562 C 141.804688 315.414062 142.578125 316.269531 143.308594 317.160156 C 144.039062 318.050781 144.726562 318.976562 145.367188 319.933594 C 146.007812 320.894531 146.601562 321.878906 147.144531 322.898438 C 147.6875 323.914062 148.179688 324.957031 148.621094 326.019531 C 149.0625 327.085938 149.449219 328.167969 149.785156 329.273438 C 150.117188 330.375 150.398438 331.492188 150.625 332.625 C 150.847656 333.753906 151.015625 334.894531 151.128906 336.042969 C 151.242188 337.1875 151.300781 338.339844 151.300781 339.492188 L 151.300781 451.425781 C 151.300781 452.578125 151.242188 453.726562 151.128906 454.875 C 151.015625 456.023438 150.847656 457.160156 150.625 458.292969 C 150.398438 459.421875 150.117188 460.539062 149.785156 461.644531 C 149.449219 462.746094 149.0625 463.832031 148.621094 464.894531 C 148.179688 465.960938 147.6875 467 147.144531 468.019531 C 146.601562 469.035156 146.007812 470.023438 145.367188 470.980469 C 144.726562 471.941406 144.039062 472.863281 143.308594 473.757812 C 142.578125 474.648438 141.804688 475.5 140.988281 476.316406 C 140.175781 477.132812 139.320312 477.90625 138.429688 478.636719 C 137.539062 479.367188 136.613281 480.054688 135.65625 480.695312 C 134.695312 481.335938 133.710938 481.925781 132.691406 482.46875 C 131.675781 483.011719 130.632812 483.503906 129.570312 483.945312 C 128.503906 484.386719 127.421875 484.777344 126.316406 485.109375 C 125.214844 485.445312 124.097656 485.726562 122.964844 485.949219 C 121.835938 486.175781 120.695312 486.34375 119.546875 486.457031 C 118.402344 486.570312 117.25 486.625 116.097656 486.625 L 92.101562 486.625 C 90.949219 486.625 89.800781 486.570312 88.652344 486.457031 C 87.503906 486.34375 86.367188 486.175781 85.234375 485.949219 C 84.105469 485.726562 82.988281 485.445312 81.882812 485.109375 C 80.78125 484.777344 79.695312 484.386719 78.632812 483.945312 C 77.566406 483.503906 76.527344 483.011719 75.507812 482.46875 C 74.492188 481.925781 73.503906 481.335938 72.546875 480.695312 C 71.585938 480.054688 70.664062 479.367188 69.773438 478.636719 C 68.878906 477.90625 68.027344 477.132812 67.210938 476.316406 C 66.398438 475.5 65.625 474.648438 64.890625 473.757812 C 64.160156 472.863281 63.472656 471.941406 62.835938 470.980469 C 62.195312 470.023438 61.601562 469.035156 61.058594 468.019531 C 60.515625 467 60.023438 465.960938 59.582031 464.894531 C 59.140625 463.832031 58.753906 462.746094 58.417969 461.644531 C 58.082031 460.539062 57.804688 459.421875 57.578125 458.292969 C 57.351562 457.160156 57.183594 456.023438 57.070312 454.875 C 56.957031 453.726562 56.902344 452.578125 56.902344 451.425781 L 56.902344 339.492188 C 56.902344 338.339844 56.957031 337.1875 57.070312 336.042969 C 57.183594 334.894531 57.351562 333.753906 57.578125 332.625 C 57.804688 331.492188 58.082031 330.375 58.417969 329.273438 C 58.753906 328.167969 59.140625 327.085938 59.582031 326.019531 C 60.023438 324.957031 60.515625 323.914062 61.058594 322.898438 C 61.601562 321.878906 62.195312 320.894531 62.835938 319.933594 C 63.472656 318.976562 64.160156 318.050781 64.890625 317.160156 C 65.625 316.269531 66.398438 315.414062 67.210938 314.601562 C 68.027344 313.785156 68.878906 313.011719 69.773438 312.28125 C 70.664062 311.550781 71.585938 310.863281 72.546875 310.222656 C 73.503906 309.582031 74.492188 308.988281 75.507812 308.445312 C 76.527344 307.902344 77.566406 307.410156 78.632812 306.96875 C 79.695312 306.527344 80.78125 306.140625 81.882812 305.804688 C 82.988281 305.472656 84.105469 305.191406 85.234375 304.964844 C 86.367188 304.742188 87.503906 304.574219 88.652344 304.460938 C 89.800781 304.347656 90.949219 304.289062 92.101562 304.289062 Z M 92.101562 304.289062 " fill-opacity="1" fill-rule="nonzero"/></g><path fill="#8e8e8e" d="M 277.605469 0.261719 L 389.539062 0.261719 C 390.691406 0.261719 391.839844 0.320312 392.988281 0.433594 C 394.136719 0.546875 395.273438 0.714844 396.40625 0.941406 C 397.535156 1.164062 398.652344 1.445312 399.753906 1.78125 C 400.859375 2.113281 401.941406 2.503906 403.007812 2.941406 C 404.074219 3.382812 405.113281 3.875 406.132812 4.421875 C 407.148438 4.964844 408.136719 5.554688 409.09375 6.195312 C 410.054688 6.835938 410.976562 7.523438 411.867188 8.253906 C 412.761719 8.984375 413.613281 9.757812 414.429688 10.574219 C 415.242188 11.390625 416.015625 12.242188 416.75 13.132812 C 417.480469 14.023438 418.164062 14.949219 418.804688 15.910156 C 419.445312 16.867188 420.039062 17.855469 420.582031 18.871094 C 421.125 19.886719 421.617188 20.929688 422.058594 21.996094 C 422.5 23.058594 422.886719 24.144531 423.222656 25.246094 C 423.558594 26.351562 423.835938 27.46875 424.0625 28.597656 C 424.289062 29.730469 424.457031 30.867188 424.570312 32.015625 C 424.683594 33.164062 424.738281 34.3125 424.738281 35.464844 L 424.738281 59.460938 C 424.738281 60.613281 424.683594 61.761719 424.570312 62.910156 C 424.457031 64.058594 424.289062 65.195312 424.0625 66.328125 C 423.835938 67.457031 423.558594 68.574219 423.222656 69.679688 C 422.886719 70.78125 422.5 71.867188 422.058594 72.929688 C 421.617188 73.996094 421.125 75.039062 420.582031 76.054688 C 420.039062 77.070312 419.445312 78.058594 418.804688 79.015625 C 418.164062 79.976562 417.480469 80.902344 416.75 81.792969 C 416.015625 82.683594 415.242188 83.535156 414.429688 84.351562 C 413.613281 85.167969 412.761719 85.941406 411.867188 86.671875 C 410.976562 87.402344 410.054688 88.089844 409.09375 88.730469 C 408.136719 89.371094 407.148438 89.960938 406.132812 90.503906 C 405.113281 91.050781 404.074219 91.542969 403.007812 91.984375 C 401.941406 92.421875 400.859375 92.8125 399.753906 93.144531 C 398.652344 93.480469 397.535156 93.761719 396.40625 93.984375 C 395.273438 94.210938 394.136719 94.378906 392.988281 94.492188 C 391.839844 94.605469 390.691406 94.660156 389.539062 94.660156 L 277.605469 94.660156 C 276.449219 94.660156 275.300781 94.605469 274.152344 94.492188 C 273.007812 94.378906 271.867188 94.210938 270.738281 93.984375 C 269.605469 93.761719 268.488281 93.480469 267.386719 93.144531 C 266.28125 92.8125 265.199219 92.421875 264.132812 91.984375 C 263.066406 91.542969 262.027344 91.050781 261.011719 90.503906 C 259.992188 89.960938 259.003906 89.371094 258.046875 88.730469 C 257.089844 88.089844 256.164062 87.402344 255.273438 86.671875 C 254.382812 85.941406 253.527344 85.167969 252.710938 84.351562 C 251.898438 83.535156 251.125 82.683594 250.394531 81.792969 C 249.660156 80.902344 248.976562 79.976562 248.335938 79.015625 C 247.695312 78.058594 247.101562 77.070312 246.558594 76.054688 C 246.015625 75.039062 245.523438 73.996094 245.082031 72.929688 C 244.640625 71.867188 244.253906 70.78125 243.917969 69.679688 C 243.582031 68.574219 243.304688 67.457031 243.078125 66.328125 C 242.855469 65.195312 242.683594 64.058594 242.570312 62.910156 C 242.457031 61.761719 242.402344 60.613281 242.402344 59.460938 L 242.402344 35.464844 C 242.402344 34.3125 242.457031 33.164062 242.570312 32.015625 C 242.683594 30.867188 242.855469 29.730469 243.078125 28.597656 C 243.304688 27.46875 243.582031 26.351562 243.917969 25.246094 C 244.253906 24.144531 244.640625 23.058594 245.082031 21.996094 C 245.523438 20.929688 246.015625 19.886719 246.558594 18.871094 C 247.101562 17.855469 247.695312 16.867188 248.335938 15.910156 C 248.976562 14.949219 249.660156 14.023438 250.394531 13.132812 C 251.125 12.242188 251.898438 11.390625 252.710938 10.574219 C 253.527344 9.757812 254.382812 8.984375 255.273438 8.253906 C 256.164062 7.523438 257.089844 6.835938 258.046875 6.195312 C 259.003906 5.554688 259.992188 4.964844 261.011719 4.421875 C 262.027344 3.875 263.066406 3.382812 264.132812 2.941406 C 265.199219 2.503906 266.28125 2.113281 267.386719 1.78125 C 268.488281 1.445312 269.605469 1.164062 270.738281 0.941406 C 271.867188 0.714844 273.007812 0.546875 274.152344 0.433594 C 275.300781 0.320312 276.449219 0.261719 277.605469 0.261719 Z M 277.605469 0.261719 " fill-opacity="1" fill-rule="nonzero"/><path fill="#000000" d="M 369.894531 472.386719 L 481.828125 472.386719 C 482.980469 472.386719 484.128906 472.445312 485.277344 472.558594 C 486.425781 472.671875 487.5625 472.839844 488.695312 473.0625 C 489.824219 473.289062 490.941406 473.570312 492.042969 473.902344 C 493.148438 474.238281 494.230469 474.625 495.296875 475.066406 C 496.363281 475.507812 497.402344 476 498.421875 476.542969 C 499.4375 477.085938 500.425781 477.679688 501.382812 478.320312 C 502.339844 478.960938 503.265625 479.648438 504.15625 480.378906 C 505.050781 481.109375 505.902344 481.882812 506.71875 482.699219 C 507.53125 483.511719 508.304688 484.367188 509.039062 485.257812 C 509.769531 486.148438 510.453125 487.074219 511.09375 488.03125 C 511.734375 488.992188 512.328125 489.976562 512.871094 490.996094 C 513.414062 492.011719 513.90625 493.054688 514.347656 494.117188 C 514.789062 495.183594 515.175781 496.265625 515.511719 497.371094 C 515.847656 498.472656 516.125 499.589844 516.351562 500.722656 C 516.578125 501.851562 516.746094 502.992188 516.859375 504.140625 C 516.972656 505.285156 517.027344 506.4375 517.027344 507.589844 L 517.027344 531.585938 C 517.027344 532.738281 516.972656 533.886719 516.859375 535.035156 C 516.746094 536.183594 516.578125 537.320312 516.351562 538.453125 C 516.125 539.582031 515.847656 540.699219 515.511719 541.804688 C 515.175781 542.90625 514.789062 543.992188 514.347656 545.054688 C 513.90625 546.121094 513.414062 547.160156 512.871094 548.179688 C 512.328125 549.195312 511.734375 550.183594 511.09375 551.140625 C 510.453125 552.101562 509.769531 553.023438 509.039062 553.917969 C 508.304688 554.808594 507.53125 555.660156 506.71875 556.476562 C 505.902344 557.289062 505.050781 558.0625 504.15625 558.796875 C 503.265625 559.527344 502.339844 560.214844 501.382812 560.851562 C 500.425781 561.492188 499.4375 562.085938 498.421875 562.628906 C 497.402344 563.171875 496.363281 563.664062 495.296875 564.105469 C 494.230469 564.546875 493.148438 564.9375 492.042969 565.269531 C 490.941406 565.605469 489.824219 565.882812 488.695312 566.109375 C 487.5625 566.335938 486.425781 566.503906 485.277344 566.617188 C 484.128906 566.730469 482.980469 566.785156 481.828125 566.785156 L 369.894531 566.785156 C 368.738281 566.785156 367.589844 566.730469 366.441406 566.617188 C 365.296875 566.503906 364.15625 566.335938 363.027344 566.109375 C 361.894531 565.882812 360.777344 565.605469 359.675781 565.269531 C 358.570312 564.9375 357.488281 564.546875 356.421875 564.105469 C 355.355469 563.664062 354.316406 563.171875 353.300781 562.628906 C 352.28125 562.085938 351.292969 561.492188 350.335938 560.851562 C 349.378906 560.214844 348.453125 559.527344 347.5625 558.796875 C 346.671875 558.0625 345.816406 557.289062 345 556.476562 C 344.1875 555.660156 343.414062 554.808594 342.683594 553.917969 C 341.949219 553.023438 341.265625 552.101562 340.625 551.140625 C 339.984375 550.183594 339.390625 549.195312 338.847656 548.179688 C 338.304688 547.160156 337.8125 546.121094 337.371094 545.054688 C 336.929688 543.992188 336.542969 542.90625 336.207031 541.804688 C 335.871094 540.699219 335.59375 539.582031 335.367188 538.453125 C 335.144531 537.320312 334.972656 536.183594 334.859375 535.035156 C 334.746094 533.886719 334.691406 532.738281 334.691406 531.585938 L 334.691406 507.589844 C 334.691406 506.4375 334.746094 505.285156 334.859375 504.140625 C 334.972656 502.992188 335.144531 501.851562 335.367188 500.722656 C 335.59375 499.589844 335.871094 498.472656 336.207031 497.371094 C 336.542969 496.265625 336.929688 495.183594 337.371094 494.117188 C 337.8125 493.054688 338.304688 492.011719 338.847656 490.996094 C 339.390625 489.976562 339.984375 488.992188 340.625 488.03125 C 341.265625 487.074219 341.949219 486.148438 342.683594 485.257812 C 343.414062 484.367188 344.1875 483.511719 345 482.699219 C 345.816406 481.882812 346.671875 481.109375 347.5625 480.378906 C 348.453125 479.648438 349.378906 478.960938 350.335938 478.320312 C 351.292969 477.679688 352.28125 477.085938 353.300781 476.542969 C 354.316406 476 355.355469 475.507812 356.421875 475.066406 C 357.488281 474.625 358.570312 474.238281 359.675781 473.902344 C 360.777344 473.570312 361.894531 473.289062 363.027344 473.0625 C 364.15625 472.839844 365.296875 472.671875 366.441406 472.558594 C 367.589844 472.445312 368.738281 472.386719 369.894531 472.386719 Z M 369.894531 472.386719 " fill-opacity="1" fill-rule="nonzero"/><path fill="#000000" d="M 172.132812 472.386719 L 284.0625 472.386719 C 285.21875 472.386719 286.367188 472.445312 287.515625 472.558594 C 288.660156 472.671875 289.800781 472.839844 290.933594 473.0625 C 292.0625 473.289062 293.179688 473.570312 294.28125 473.902344 C 295.386719 474.238281 296.46875 474.625 297.535156 475.066406 C 298.601562 475.507812 299.640625 476 300.65625 476.542969 C 301.675781 477.085938 302.664062 477.679688 303.621094 478.320312 C 304.578125 478.960938 305.503906 479.648438 306.394531 480.378906 C 307.289062 481.109375 308.140625 481.882812 308.957031 482.699219 C 309.769531 483.511719 310.542969 484.367188 311.277344 485.257812 C 312.007812 486.148438 312.691406 487.074219 313.332031 488.03125 C 313.972656 488.992188 314.566406 489.976562 315.109375 490.996094 C 315.652344 492.011719 316.144531 493.054688 316.585938 494.117188 C 317.027344 495.183594 317.414062 496.265625 317.75 497.371094 C 318.085938 498.472656 318.363281 499.589844 318.589844 500.722656 C 318.8125 501.851562 318.984375 502.992188 319.097656 504.140625 C 319.210938 505.285156 319.265625 506.4375 319.265625 507.589844 L 319.265625 531.585938 C 319.265625 532.738281 319.210938 533.886719 319.097656 535.035156 C 318.984375 536.183594 318.8125 537.320312 318.589844 538.453125 C 318.363281 539.582031 318.085938 540.699219 317.75 541.804688 C 317.414062 542.90625 317.027344 543.992188 316.585938 545.054688 C 316.144531 546.121094 315.652344 547.160156 315.109375 548.179688 C 314.566406 549.195312 313.972656 550.183594 313.332031 551.140625 C 312.691406 552.101562 312.007812 553.023438 311.277344 553.917969 C 310.542969 554.808594 309.769531 555.660156 308.957031 556.476562 C 308.140625 557.289062 307.289062 558.0625 306.394531 558.796875 C 305.503906 559.527344 304.578125 560.214844 303.621094 560.851562 C 302.664062 561.492188 301.675781 562.085938 300.65625 562.628906 C 299.640625 563.171875 298.601562 563.664062 297.535156 564.105469 C 296.46875 564.546875 295.386719 564.9375 294.28125 565.269531 C 293.179688 565.605469 292.0625 565.882812 290.933594 566.109375 C 289.800781 566.335938 288.660156 566.503906 287.515625 566.617188 C 286.367188 566.730469 285.21875 566.785156 284.0625 566.785156 L 172.132812 566.785156 C 170.976562 566.785156 169.828125 566.730469 168.679688 566.617188 C 167.53125 566.503906 166.394531 566.335938 165.261719 566.109375 C 164.132812 565.882812 163.015625 565.605469 161.914062 565.269531 C 160.808594 564.9375 159.726562 564.546875 158.660156 564.105469 C 157.59375 563.664062 156.554688 563.171875 155.535156 562.628906 C 154.519531 562.085938 153.53125 561.492188 152.574219 560.851562 C 151.617188 560.214844 150.691406 559.527344 149.800781 558.796875 C 148.90625 558.0625 148.054688 557.289062 147.238281 556.476562 C 146.425781 555.660156 145.652344 554.808594 144.917969 553.917969 C 144.1875 553.023438 143.503906 552.101562 142.863281 551.140625 C 142.222656 550.183594 141.628906 549.195312 141.085938 548.179688 C 140.542969 547.160156 140.050781 546.121094 139.609375 545.054688 C 139.167969 543.992188 138.78125 542.90625 138.445312 541.804688 C 138.109375 540.699219 137.832031 539.582031 137.605469 538.453125 C 137.378906 537.320312 137.210938 536.183594 137.097656 535.035156 C 136.984375 533.886719 136.929688 532.738281 136.929688 531.585938 L 136.929688 507.589844 C 136.929688 506.4375 136.984375 505.285156 137.097656 504.140625 C 137.210938 502.992188 137.378906 501.851562 137.605469 500.722656 C 137.832031 499.589844 138.109375 498.472656 138.445312 497.371094 C 138.78125 496.265625 139.167969 495.183594 139.609375 494.117188 C 140.050781 493.054688 140.542969 492.011719 141.085938 490.996094 C 141.628906 489.976562 142.222656 488.992188 142.863281 488.03125 C 143.503906 487.074219 144.1875 486.148438 144.917969 485.257812 C 145.652344 484.367188 146.425781 483.511719 147.238281 482.699219 C 148.054688 481.882812 148.90625 481.109375 149.800781 480.378906 C 150.691406 479.648438 151.617188 478.960938 152.574219 478.320312 C 153.53125 477.679688 154.519531 477.085938 155.535156 476.542969 C 156.554688 476 157.59375 475.507812 158.660156 475.066406 C 159.726562 474.625 160.808594 474.238281 161.914062 473.902344 C 163.015625 473.570312 164.132812 473.289062 165.261719 473.0625 C 166.394531 472.839844 167.53125 472.671875 168.679688 472.558594 C 169.828125 472.445312 170.976562 472.386719 172.132812 472.386719 Z M 172.132812 472.386719 " fill-opacity="1" fill-rule="nonzero"/><path fill="#545454" d="M 184.128906 456.039062 L 472.070312 456.039062 C 472.9375 456.039062 473.792969 455.953125 474.640625 455.785156 C 475.492188 455.617188 476.316406 455.367188 477.117188 455.035156 C 477.914062 454.703125 478.675781 454.296875 479.394531 453.816406 C 480.113281 453.335938 480.78125 452.789062 481.394531 452.175781 C 482.003906 451.566406 482.550781 450.898438 483.03125 450.179688 C 483.511719 449.460938 483.917969 448.699219 484.25 447.902344 C 484.582031 447.101562 484.832031 446.277344 485 445.425781 C 485.167969 444.578125 485.253906 443.722656 485.253906 442.855469 L 485.253906 126.4375 C 485.253906 125.570312 485.167969 124.710938 485 123.863281 C 484.832031 123.015625 484.582031 122.191406 484.25 121.390625 C 483.917969 120.589844 483.511719 119.832031 483.03125 119.109375 C 482.550781 118.390625 482.003906 117.726562 481.394531 117.113281 C 480.78125 116.5 480.113281 115.953125 479.394531 115.472656 C 478.675781 114.992188 477.914062 114.585938 477.117188 114.253906 C 476.316406 113.925781 475.492188 113.675781 474.640625 113.503906 C 473.792969 113.335938 472.9375 113.25 472.070312 113.25 L 378.460938 113.25 C 377.597656 113.25 376.738281 113.335938 375.890625 113.503906 C 375.042969 113.675781 374.21875 113.925781 373.417969 114.253906 C 372.617188 114.585938 371.859375 114.992188 371.136719 115.472656 C 370.417969 115.953125 369.753906 116.5 369.140625 117.113281 C 368.527344 117.726562 367.980469 118.390625 367.5 119.109375 C 367.019531 119.832031 366.613281 120.589844 366.28125 121.390625 C 365.949219 122.191406 365.699219 123.015625 365.53125 123.863281 C 365.363281 124.710938 365.277344 125.570312 365.277344 126.4375 L 365.277344 342.523438 L 286.171875 342.523438 L 286.171875 126.4375 C 286.171875 125.570312 286.089844 124.710938 285.921875 123.863281 C 285.75 123.015625 285.5 122.191406 285.171875 121.390625 C 284.839844 120.589844 284.433594 119.832031 283.953125 119.109375 C 283.472656 118.390625 282.925781 117.726562 282.3125 117.113281 C 281.699219 116.5 281.035156 115.953125 280.3125 115.472656 C 279.59375 114.992188 278.835938 114.585938 278.035156 114.253906 C 277.234375 113.925781 276.410156 113.675781 275.5625 113.503906 C 274.710938 113.335938 273.855469 113.25 272.988281 113.25 L 184.128906 113.25 C 183.261719 113.25 182.40625 113.335938 181.554688 113.503906 C 180.707031 113.675781 179.882812 113.925781 179.082031 114.253906 C 178.285156 114.585938 177.523438 114.992188 176.804688 115.472656 C 176.082031 115.953125 175.417969 116.5 174.804688 117.113281 C 174.195312 117.726562 173.648438 118.390625 173.167969 119.109375 C 172.683594 119.832031 172.277344 120.589844 171.949219 121.390625 C 171.617188 122.191406 171.367188 123.015625 171.199219 123.863281 C 171.027344 124.710938 170.945312 125.570312 170.945312 126.4375 L 170.945312 442.855469 C 170.945312 443.722656 171.027344 444.578125 171.199219 445.425781 C 171.367188 446.277344 171.617188 447.101562 171.949219 447.902344 C 172.277344 448.699219 172.683594 449.460938 173.167969 450.179688 C 173.648438 450.898438 174.195312 451.566406 174.804688 452.175781 C 175.417969 452.789062 176.082031 453.335938 176.804688 453.816406 C 177.523438 454.296875 178.285156 454.703125 179.082031 455.035156 C 179.882812 455.367188 180.707031 455.617188 181.554688 455.785156 C 182.40625 455.953125 183.261719 456.039062 184.128906 456.039062 Z M 184.128906 456.039062 " fill-opacity="1" fill-rule="nonzero"/><g fill="#000000" fill-opacity="1"><g transform="translate(669.552902, 413.562623)"><g><path d="M 240.796875 -243.25 L 154.125 -243.25 L 154.125 0 L 95.25 0 L 95.25 -243.25 L 8.578125 -243.25 L 8.578125 -292.71875 L 240.796875 -292.71875 Z M 240.796875 -243.25 "/></g></g></g><g fill="#000000" fill-opacity="1"><g transform="translate(869.062564, 413.562623)"><g><path d="M 110.390625 -216.671875 C 144.179688 -216.671875 169.390625 -205.703125 186.015625 -183.765625 C 202.640625 -161.828125 210.953125 -130.550781 210.953125 -89.9375 L 70.3125 -89.9375 C 70.863281 -75.769531 75.019531 -63.570312 82.78125 -53.34375 C 90.550781 -43.125 101.796875 -38.015625 116.515625 -38.015625 C 125.785156 -38.015625 133.347656 -40.398438 139.203125 -45.171875 C 145.066406 -49.941406 149.359375 -57.367188 152.078125 -67.453125 L 208.09375 -58.046875 C 201.007812 -37.335938 189.5625 -21.664062 173.75 -11.03125 C 157.945312 -0.40625 138.597656 4.90625 115.703125 4.90625 C 81.628906 4.90625 55.875 -5.3125 38.4375 -25.75 C 30.257812 -35.289062 23.988281 -47.285156 19.625 -61.734375 C 15.257812 -76.179688 13.078125 -90.488281 13.078125 -104.65625 C 13.078125 -124.007812 16.550781 -142.203125 23.5 -159.234375 C 30.457031 -176.273438 41.222656 -190.109375 55.796875 -200.734375 C 70.378906 -211.359375 88.578125 -216.671875 110.390625 -216.671875 Z M 71.546875 -124.28125 L 155.359375 -124.28125 C 155.085938 -141.457031 150.789062 -153.992188 142.46875 -161.890625 C 134.15625 -169.796875 124.414062 -173.75 113.25 -173.75 C 100.164062 -173.75 89.941406 -169.046875 82.578125 -159.640625 C 75.222656 -150.242188 71.546875 -138.457031 71.546875 -124.28125 Z M 71.546875 -124.28125 "/></g></g></g><g fill="#000000" fill-opacity="1"><g transform="translate(1084.516775, 413.562623)"><g><path d="M 112.015625 -216.671875 C 139.003906 -216.671875 159.035156 -213.195312 172.109375 -206.25 C 185.191406 -199.300781 193.4375 -190.171875 196.84375 -178.859375 C 200.257812 -167.546875 201.828125 -152.625 201.546875 -134.09375 L 201.140625 -72.359375 C 200.867188 -53.003906 201.550781 -38.96875 203.1875 -30.25 C 204.820312 -21.53125 208.226562 -11.445312 213.40625 0 L 158.21875 0 C 156.851562 -3 154.398438 -10.765625 150.859375 -23.296875 C 140.773438 -13.484375 130.347656 -6.328125 119.578125 -1.828125 C 108.816406 2.660156 97.300781 4.90625 85.03125 4.90625 C 64.050781 4.90625 47.085938 -0.882812 34.140625 -12.46875 C 21.191406 -24.050781 14.71875 -39.109375 14.71875 -57.640625 C 14.71875 -73.179688 18.597656 -85.515625 26.359375 -94.640625 C 34.128906 -103.773438 43.601562 -110.382812 54.78125 -114.46875 C 65.957031 -118.5625 79.175781 -122.101562 94.4375 -125.09375 C 117.875 -129.457031 135.179688 -133.820312 146.359375 -138.1875 L 146.359375 -147.171875 C 146.359375 -156.441406 143.628906 -163.1875 138.171875 -167.40625 C 132.722656 -171.632812 122.78125 -173.75 108.34375 -173.75 C 97.164062 -173.75 88.847656 -171.5 83.390625 -167 C 77.941406 -162.507812 73.859375 -155.898438 71.140625 -147.171875 L 20.4375 -156.578125 C 25.894531 -177.296875 35.707031 -192.488281 49.875 -202.15625 C 64.050781 -211.832031 84.765625 -216.671875 112.015625 -216.671875 Z M 111.203125 -92.796875 L 101.796875 -90.765625 C 81.085938 -86.398438 70.734375 -77.40625 70.734375 -63.78125 C 70.734375 -55.601562 73.660156 -48.71875 79.515625 -43.125 C 85.378906 -37.539062 92.804688 -34.75 101.796875 -34.75 C 109.160156 -34.75 116.519531 -36.65625 123.875 -40.46875 C 131.226562 -44.289062 136.953125 -49.332031 141.046875 -55.59375 C 144.585938 -61.320312 146.359375 -71.132812 146.359375 -85.03125 L 146.359375 -101.796875 C 135.734375 -98.523438 124.015625 -95.523438 111.203125 -92.796875 Z M 111.203125 -92.796875 "/></g></g></g><g fill="#000000" fill-opacity="1"><g transform="translate(1299.970963, 413.562623)"><g><path d="M 143.09375 -216.671875 C 170.613281 -216.671875 190.644531 -205.5 203.1875 -183.15625 C 221.445312 -205.5 242.976562 -216.671875 267.78125 -216.671875 C 291.21875 -216.671875 308.660156 -210.265625 320.109375 -197.453125 C 331.554688 -184.648438 337.28125 -165.4375 337.28125 -139.8125 L 337.28125 0 L 281.28125 0 L 281.28125 -126.734375 C 281.28125 -141.992188 279.300781 -153.644531 275.34375 -161.6875 C 271.394531 -169.726562 263.421875 -173.75 251.421875 -173.75 C 239.984375 -173.75 230.785156 -169.796875 223.828125 -161.890625 C 216.878906 -153.992188 212.585938 -143.773438 210.953125 -131.234375 C 209.859375 -121.421875 209.3125 -112.695312 209.3125 -105.0625 L 209.3125 0 L 153.3125 0 L 153.3125 -124.6875 C 153.3125 -141.863281 151.46875 -154.332031 147.78125 -162.09375 C 144.101562 -169.863281 136.269531 -173.75 124.28125 -173.75 C 115.5625 -173.75 107.722656 -171.429688 100.765625 -166.796875 C 93.816406 -162.171875 88.984375 -155.769531 86.265625 -147.59375 C 82.992188 -137.78125 81.359375 -124.015625 81.359375 -106.296875 L 81.359375 0 L 25.34375 0 L 25.34375 -211.765625 L 77.265625 -211.765625 L 78.09375 -183.15625 C 86.8125 -193.78125 96.007812 -202.019531 105.6875 -207.875 C 115.363281 -213.738281 127.832031 -216.671875 143.09375 -216.671875 Z M 143.09375 -216.671875 "/></g></g></g><g fill="#000000" fill-opacity="1"><g transform="translate(1651.572337, 413.562623)"><g/></g></g><g fill="#000000" fill-opacity="1"><g transform="translate(1753.37138, 413.562623)"><g><path d="M 237.9375 -275.140625 C 248.019531 -267.234375 255.378906 -257.757812 260.015625 -246.71875 C 264.648438 -235.6875 266.96875 -224.3125 266.96875 -212.59375 C 266.96875 -191.332031 260.148438 -173.816406 246.515625 -160.046875 C 232.890625 -146.285156 212.175781 -137.363281 184.375 -133.28125 C 195.007812 -128.375 204.550781 -121.765625 213 -113.453125 C 221.445312 -105.140625 230.441406 -93.625 239.984375 -78.90625 L 290.671875 0 L 242.03125 0 L 204.40625 -58.875 C 191.332031 -79.3125 180.910156 -94.234375 173.140625 -103.640625 C 165.367188 -113.046875 157.394531 -119.722656 149.21875 -123.671875 C 141.039062 -127.617188 130.6875 -129.59375 118.15625 -129.59375 L 71.546875 -129.59375 L 71.546875 0 L 32.703125 0 L 32.703125 -292.71875 L 167.203125 -292.71875 C 184.378906 -292.71875 198.347656 -291.421875 209.109375 -288.828125 C 219.878906 -286.242188 229.488281 -281.679688 237.9375 -275.140625 Z M 209.734375 -176.609375 C 215.722656 -181.242188 220.082031 -186.765625 222.8125 -193.171875 C 225.539062 -199.578125 226.90625 -206.050781 226.90625 -212.59375 C 226.90625 -229.757812 220.769531 -242.019531 208.5 -249.375 C 196.238281 -256.738281 181.929688 -260.421875 165.578125 -260.421875 L 71.546875 -260.421875 L 71.546875 -163.9375 L 159.03125 -163.9375 C 172.65625 -163.9375 183.078125 -164.957031 190.296875 -167 C 197.523438 -169.050781 204.003906 -172.253906 209.734375 -176.609375 Z M 209.734375 -176.609375 "/></g></g></g><g fill="#000000" fill-opacity="1"><g transform="translate(2032.603349, 413.562623)"><g><path d="M 113.65625 -216.671875 C 129.738281 -216.671875 145.34375 -213.128906 160.46875 -206.046875 C 175.59375 -198.960938 188.128906 -187.175781 198.078125 -170.6875 C 208.023438 -154.195312 213 -132.597656 213 -105.890625 C 213 -82.171875 208.773438 -62.066406 200.328125 -45.578125 C 191.878906 -29.085938 180.160156 -16.617188 165.171875 -8.171875 C 150.179688 0.273438 133.007812 4.5 113.65625 4.5 C 85.3125 4.5 62.144531 -4.359375 44.15625 -22.078125 C 24.257812 -41.429688 14.3125 -69.367188 14.3125 -105.890625 C 14.3125 -129.597656 18.535156 -149.765625 26.984375 -166.390625 C 35.429688 -183.015625 47.148438 -195.550781 62.140625 -204 C 77.128906 -212.445312 94.300781 -216.671875 113.65625 -216.671875 Z M 51.109375 -105.890625 C 51.109375 -80.265625 56.757812 -60.363281 68.0625 -46.1875 C 79.375 -32.019531 94.570312 -24.9375 113.65625 -24.9375 C 132.457031 -24.9375 147.582031 -31.953125 159.03125 -45.984375 C 170.476562 -60.023438 176.203125 -79.992188 176.203125 -105.890625 C 176.203125 -130.960938 170.613281 -150.789062 159.4375 -165.375 C 148.269531 -179.957031 132.875 -187.25 113.25 -187.25 C 94.707031 -187.25 79.710938 -180.09375 68.265625 -165.78125 C 56.828125 -151.46875 51.109375 -131.503906 51.109375 -105.890625 Z M 51.109375 -105.890625 "/></g></g></g><g fill="#000000" fill-opacity="1"><g transform="translate(2248.057582, 413.562623)"><g><path d="M 113.65625 -216.671875 C 129.738281 -216.671875 145.34375 -213.128906 160.46875 -206.046875 C 175.59375 -198.960938 188.128906 -187.175781 198.078125 -170.6875 C 208.023438 -154.195312 213 -132.597656 213 -105.890625 C 213 -82.171875 208.773438 -62.066406 200.328125 -45.578125 C 191.878906 -29.085938 180.160156 -16.617188 165.171875 -8.171875 C 150.179688 0.273438 133.007812 4.5 113.65625 4.5 C 85.3125 4.5 62.144531 -4.359375 44.15625 -22.078125 C 24.257812 -41.429688 14.3125 -69.367188 14.3125 -105.890625 C 14.3125 -129.597656 18.535156 -149.765625 26.984375 -166.390625 C 35.429688 -183.015625 47.148438 -195.550781 62.140625 -204 C 77.128906 -212.445312 94.300781 -216.671875 113.65625 -216.671875 Z M 51.109375 -105.890625 C 51.109375 -80.265625 56.757812 -60.363281 68.0625 -46.1875 C 79.375 -32.019531 94.570312 -24.9375 113.65625 -24.9375 C 132.457031 -24.9375 147.582031 -31.953125 159.03125 -45.984375 C 170.476562 -60.023438 176.203125 -79.992188 176.203125 -105.890625 C 176.203125 -130.960938 170.613281 -150.789062 159.4375 -165.375 C 148.269531 -179.957031 132.875 -187.25 113.25 -187.25 C 94.707031 -187.25 79.710938 -180.09375 68.265625 -165.78125 C 56.828125 -151.46875 51.109375 -131.503906 51.109375 -105.890625 Z M 51.109375 -105.890625 "/></g></g></g><g fill="#000000" fill-opacity="1"><g transform="translate(2463.511815, 413.562623)"><g><path d="M 123.46875 -216.671875 C 138.726562 -216.671875 151.332031 -213.46875 161.28125 -207.0625 C 171.226562 -200.664062 178.382812 -191.46875 182.75 -179.46875 C 191.195312 -191.46875 200.53125 -200.664062 210.75 -207.0625 C 220.96875 -213.46875 233.4375 -216.671875 248.15625 -216.671875 C 269.414062 -216.671875 285.769531 -210.609375 297.21875 -198.484375 C 308.664062 -186.359375 314.390625 -169.117188 314.390625 -146.765625 L 314.390625 0 L 278.40625 0 L 278.40625 -136.140625 C 278.40625 -153.304688 275.40625 -165.84375 269.40625 -173.75 C 263.414062 -181.65625 253.609375 -185.609375 239.984375 -185.609375 C 222.804688 -185.609375 209.925781 -179.816406 201.34375 -168.234375 C 192.757812 -156.648438 188.46875 -142.132812 188.46875 -124.6875 L 188.46875 0 L 152.5 0 L 152.5 -139.40625 C 152.5 -154.945312 149.429688 -166.53125 143.296875 -174.15625 C 137.160156 -181.789062 127.6875 -185.609375 114.875 -185.609375 C 104.519531 -185.609375 94.773438 -182.675781 85.640625 -176.8125 C 76.515625 -170.957031 70.179688 -162.304688 66.640625 -150.859375 C 63.910156 -142.679688 62.546875 -130.28125 62.546875 -113.65625 L 62.546875 0 L 26.578125 0 L 26.578125 -211.765625 L 58.875 -211.765625 L 58.875 -182.34375 C 66.5 -194.0625 75.898438 -202.710938 87.078125 -208.296875 C 98.253906 -213.878906 110.382812 -216.671875 123.46875 -216.671875 Z M 123.46875 -216.671875 "/></g></g></g></svg>